<?xml version="1.0" encoding="UTF-8"?>
<svg id="Layer_2" data-name="Layer 2" xmlns="http://www.w3.org/2000/svg" viewBox="0 0 516.3 516.3">
  <defs>
    <style>
      .cls-1 {
        fill: #fff;
      }

      .cls-2 {
        fill: #e94057;
      }
    </style>
  </defs>
  <g id="Layer_1-2" data-name="Layer 1">
    <g>
      <rect class="cls-1" width="516.3" height="516.3" rx="84.06" ry="84.06"/>
      <g>
        <path class="cls-2" d="M294.34,297.16c-.21.26-.44.54-.7.83l-1.23,1.8c-.13.24-.26.43-.38.59-.07.11-.15.21-.18.27-.18.37-.41.7-.59.97l-.1.15c-.85,1.42-1.59,2.76-2.21,4-.07.14-.14.29-.21.44-.83,8.01-1.79,16.07-1.52,24.08.06,1.77.44,3.2,1.1,4.26.2-.89.39-1.79.58-2.67,1.41-6.66,2.62-12.98,3.6-18.8.51-3.01,1.05-6.21,1.4-9.35.16-1.38.34-2.97.43-4.53,0-.27.02-.54.02-.8.02-.44.03-.84,0-1.23ZM325.08,291.82c0-.88-.17-1.76-.35-2.64-.18-.44-.27-.89-.44-1.41-.27-.44-.53-.89-.89-1.42l-.79-.62c-.35-.17-.7-.35-1.05-.44-.36-.09-.71-.09-1.06-.09s-.62.09-.89.18c-.35.09-.52.26-.79.35-.26.09-.44.27-.7.36l-1.06.88c-.7.62-1.32,1.23-1.85,1.85-1.15,1.32-2.03,2.74-2.9,4.15-.89,1.41-1.68,2.82-2.47,4.23-.7,1.5-1.42,2.9-2.12,4.41l-.97,2.29-.18.53-.26.62c-.17.36-.26.7-.44,1.15l-1.58,4.58c-.53,1.5-1.06,3-1.5,4.5-1.05,3.09-2.03,6.17-2.99,9.16l-3.69,11.61c.41-.19.84-.4,1.27-.65.89-.51,1.76-1.08,2.59-1.7l2.64-8.29c.97-3.09,1.94-6.08,3-9.17.44-1.5.97-3,1.5-4.49.53-1.59,1.06-3.09,1.59-4.49.09-.44.26-.8.44-1.15l.17-.53.26-.53.89-2.2c.7-1.42,1.32-2.82,2.03-4.23.79-1.41,1.5-2.74,2.38-4.06.79-1.32,1.67-2.56,2.64-3.7.53-.62.97-1.14,1.5-1.58.27-.27.53-.44.8-.62.26-.17.52-.27.7-.36.09,0,.17-.09.26-.09h.17v.09q.09,0,.18.09c.09.18.26.36.35.62l.27.89c.17.7.26,1.41.35,2.2.09.71.09,1.5.09,2.21,0,1.58-.09,3.09-.26,4.67-.26,3.18-.7,6.27-1.23,9.44l-1.17,6.57c1.27-1.25,2.52-2.5,3.78-3.75l.39-2.29c.53-3.17,1.06-6.43,1.32-9.69.09-1.59.26-3.26.26-4.94,0-.79-.09-1.68-.17-2.47ZM320.33,298.79c.17-1.56.25-2.99.25-4.49,0-.66,0-1.4-.07-2.03-.08-.71-.16-1.35-.31-1.96-.03.02-.06.06-.09.08l-.06.06-.06.05c-.39.32-.74.74-1.2,1.27l-.09.12c-.92,1.08-1.76,2.25-2.5,3.49l-.02.03-.02.03c-.69,1.04-1.27,2.09-1.89,3.2l-.4.72c-.34.68-.66,1.38-.98,2.05-.32.69-.65,1.39-1,2.1l-.85,2.14-.02.06-.03.06-.21.43-.14.42-.03.11-.06.1c-.14.28-.25.51-.3.74l-.02.13-.05.12c-.51,1.38-1.04,2.87-1.57,4.47-.51,1.45-1.04,2.95-1.47,4.41v.03s-.02.03-.02.03c-.94,2.75-1.89,5.65-2.98,9.14l-1.92,6.03c1.12-.95,2.2-1.97,3.24-3,4.04-4.01,8.08-8.01,12.13-12.02l1.56-8.76c.61-3.68.99-6.55,1.22-9.3v-.05ZM408.57,119.13c-24.93-38.24-72.89-53.54-115.47-36.8-2.21.87-4.31,2.01-6.51,3.04,5.2,6.43,10.11,12.11,14.52,18.16,2.04,2.79,3.72,3.57,7.13,2.44,11.2-3.7,22.67-4.22,34.22-1.67,32.81,7.21,56.21,37.26,54.35,69.71-2.02,35.06-28.51,62.7-63.21,65.54-13.94,1.14-27.09-1.8-39.59-9.33,1.23-2.27,2.28-4.07,3.19-5.95,19.03-38.98,17.62-77.25-7.14-112.88-24.38-35.09-59.49-50.65-101.77-45.45-44.53,5.47-75.62,30.69-89.71,73.28-14.29,43.25-3.98,82.19,28.98,113.76,36.33,34.8,73.66,68.56,110.61,102.7,2.23,2.06,4.84,3.92,7.61,5.12,1.42.62,2.74.87,3.91.79l1.75-11.06,2.02-12.49c-2.86-19.38-5.81-38.75-8.89-58.11-.71-4.52-.06-7.32,4.7-9.41,5.59-2.46,11.68-5.24,15.66-9.61,8.41-9.22,16.55-8.85,25.45-1.78,1.56,1.24,3.14,3.83,2.97,5.63-.85,9.12-1.96,18.23-3.02,27.33.28-.35.61-.68.96-.97.36-.44.76-.8,1.2-1.09.13-.13.34-.28.62-.43l.05-.02c.08-.06.17-.11.28-.15.15-.1.31-.17.48-.23.09-.06.2-.1.31-.13.19-.09.39-.13.6-.16.13-.05.34-.09.58-.09h.62c.28,0,.5.05.68.11.11.02.21.04.28.06h.32l.4.27.14.09c.15.06.44.17.71.45l.27.27.17.17.11.12.17.17v.09l.03.06c.17.2.28.42.38.61.25.41.39.8.47,1.08.21.62.31,1.13.4,1.6l.02.08v.08c.06.48.08.95.1,1.4.02.44.04.85.09,1.24v.08s0,.08,0,.08c0,.44-.02.89-.05,1.32-.02.4-.05.79-.05,1.15v.09c-.08,1.57-.24,3.03-.4,4.58l-.04.44v.02s0,.03,0,.03c-.44,3.12-.89,6.36-1.42,9.56v.02s0,.02,0,.02c-.31,1.57-.6,3.18-.88,4.73-.28,1.57-.58,3.19-.89,4.82l-2.03,9.42c-.25,1.19-.5,2.37-.76,3.55h0l4.04-12.74c.24-.72.47-1.45.7-2.18.73-2.28,1.49-4.64,2.29-6.98.45-1.53.99-3.06,1.51-4.53l1.58-4.58.02-.04.02-.03c.06-.15.1-.29.15-.42.09-.25.18-.51.32-.8l.22-.52.16-.47.02-.06.02-.06.97-2.29.02-.03v-.02c.36-.76.73-1.5,1.08-2.23.35-.72.7-1.44,1.04-2.18l.02-.05.02-.05c.79-1.41,1.61-2.86,2.51-4.3.9-1.44,1.83-2.93,3.05-4.34.58-.67,1.25-1.35,2-2.01l.02-.02.02-.02,1.06-.88.23-.19.25-.08s.05-.03.07-.05c.14-.09.36-.21.64-.31.02-.02.05-.03.07-.04.17-.09.44-.24.8-.34.31-.1.75-.25,1.34-.25.4,0,.89,0,1.44.14.52.13.98.36,1.38.55l.13.07.13.1.79.62.21.16.14.21c.37.56.65,1.03.92,1.48l.09.14.06.17c.08.25.14.47.21.7.07.24.13.45.2.62l.06.13.03.14c.17.87.37,1.85.38,2.86.09.84.17,1.73.17,2.56,0,1.19-.08,2.37-.17,3.51-.03.51-.07,1.01-.09,1.51v.04c-.27,3.24-.79,6.49-1.34,9.83l-.02.12c23.38-23.2,46.74-46.42,70.07-69.65,32.55-32.42,38.05-82.52,13.28-120.52ZM251.94,237.17c-34.55,27.75-85.15,22.38-113.56-12.05-28.11-34.07-23.68-84.7,9.81-113.35,33.81-28.93,80.81-23.35,105.01.06-15.36,20.24-22.4,43.18-20.12,68.63,1.34,14.95,5.89,28.95,14.74,42.24,7.72-7.02,13.06-15.07,16.34-24.41.59-1.7-.42-4.1-1.04-6.07-5.71-18.2-4.07-35.76,4.57-52.69.94-1.85,2.13-3.58,3.58-5.99,17.42,25.58,17.48,74.07-19.33,103.64ZM298.99,294.29c-.09-.44-.17-.88-.35-1.41-.09-.27-.18-.53-.36-.8-.09-.17-.17-.35-.26-.44l-.18-.27c-.09-.09-.17-.09-.17-.17l-.26-.26c-.09-.09-.18-.09-.36-.18l-.26-.17c-.18,0-.27-.09-.44-.09-.09,0-.17-.09-.36-.09h-.62c-.09,0-.17.09-.35.09-.09,0-.17,0-.26.09-.09,0-.18,0-.18.09-.17,0-.35.09-.44.17-.09,0-.17.09-.17.09l-.17.09c-.17.09-.27.17-.36.26-.44.27-.79.62-1.05.97-.36.26-.71.62-.97.97-.48.56-.97,1.12-1.46,1.76-.26,2.33-.52,4.67-.78,7,.21-.36.43-.73.64-1.08.18-.27.44-.62.62-.97.17-.36.44-.62.62-.97l1.32-1.94c.53-.62.97-1.15,1.41-1.76l.79-.8c.27-.17.44-.44.7-.62.09,0,.09-.09.18-.09l.09-.09q0,.09.09.17c.09.27.09.62.17.89.09.7.09,1.5.09,2.2.09.79,0,1.5,0,2.29-.09,1.58-.26,3.17-.44,4.67-.36,3.17-.89,6.35-1.42,9.44-1.05,6.26-2.29,12.6-3.61,18.86-.27,1.26-.55,2.52-.82,3.79.82.6,1.82.9,2.94.9.29-1.36.59-2.71.87-4.07l2.03-9.43c.62-3.17,1.14-6.35,1.76-9.52.53-3.17.97-6.34,1.42-9.52.17-1.68.35-3.26.44-4.94,0-.79.09-1.68.09-2.47-.09-.88-.09-1.76-.18-2.64ZM254.31,343.94c-.04-.25-.07-.48-.11-.73l-1.22,7.58-1.65,10.43c1.9-.8,3.15-2.78,3.43-5.77.36-3.79.1-7.72-.46-11.5Z"/>
        <g>
          <path class="cls-2" d="M145.48,350.17c.79-4.14,1.41-8.37,2.03-12.52.62-4.14,1.15-8.37,1.5-12.6.26-2.12.44-4.23.53-6.35.18-2.12.26-4.23.26-6.35s0-4.32-.26-6.43c-.09-1.15-.18-2.2-.35-3.26-.18-1.15-.44-2.2-.88-3.35-.18-.53-.35-1.06-.71-1.67-.09-.09-.18-.26-.18-.35l-.26-.44-.35-.35-.18-.26c-.09,0-.09-.09-.18-.18l-.35-.35-.26-.18-.26-.18c-.26-.18-.62-.35-.97-.53-.35-.09-.79-.18-1.15-.18l-.26-.09h-.35c-.18,0-.35.09-.53.09-.71.09-1.32.26-1.85.53-.62.26-1.15.62-1.67.88-.18.18-.44.35-.71.53-.18.18-.44.35-.62.53l-.71.53c-.18.18-.35.35-.62.53-3.17,3.08-5.82,6.52-8.11,10.14-2.29,3.61-4.32,7.32-6.26,11.19-1.85,3.79-3.61,7.58-5.29,11.55-3.26,7.76-6.17,15.69-8.99,23.62-1.41,4.05-2.73,8.02-4.05,11.99-1.23,4.05-2.56,8.11-3.79,12.08-1.23,4.05-2.47,8.02-3.79,12.07-.35,1.15-.71,2.2-1.06,3.35v-.09l.09-.71.18-1.59c.18-.97.35-2.03.44-3.08l.26-1.59.18-1.5.53-3.17.88-6.17,1.94-12.52,1.94-12.43,3.88-24.94,7.93-49.88c.09-.71-.44-1.41-1.15-1.59-.05,0-.1,0-.15,0-.65,0-1.27.5-1.43,1.16v.18l-.09.26c0,.18,0,.26-.09.44l-.26.97c-.09.35-.18.71-.35.97l-.18.53c0,.18-.09.26-.09.44v.09c-.09.35,0,.71.26,1.06-2.38,14.98-4.85,29.97-7.23,44.95-2.73,16.57-5.38,33.23-7.93,49.8-.35,2.12-.62,4.23-.97,6.26l-.44,3.17-.26,1.5-.26,1.59c-.09,1.06-.26,2.12-.44,3.17l-.26,2.38c-.09.26-.09.53-.09.79l-.26,3.17c0,.53-.09,1.06-.09,1.67v.79c0,.35,0,.62.09.97v.53c0,.09.09.18.09.26s0,.18.09.26c0,0,.09.18.09.26.09.09.09.18.26.35.09.18.35.35.71.53.21.1.44.15.66.15.15,0,.29-.02.4-.06l.62-.26c.09-.09.18-.18.26-.26l.18-.18c0-.09.09-.09.09-.18l.09-.09c.18-.18.26-.35.26-.53l.26-.35c.09-.35.26-.53.35-.79.44-1.06.79-2.12,1.15-3.08.71-2.03,1.32-4.05,1.94-5.99,1.32-4.05,2.56-8.11,3.79-12.07,1.32-4.05,2.56-8.02,3.88-11.99,1.23-4.05,2.56-8.02,3.97-11.99,2.73-7.93,5.64-15.78,8.9-23.53,1.59-3.79,3.26-7.67,5.11-11.37,1.85-3.7,3.88-7.4,6.08-10.93,1.15-1.67,2.29-3.44,3.53-5.02.35-.35.62-.79.97-1.15l.97-1.15c.71-.79,1.41-1.5,2.12-2.2l.62-.53c.18-.09.35-.26.53-.44l.53-.44c.26-.09.44-.26.62-.35.35-.26.79-.53,1.15-.71.44-.18.79-.26,1.15-.35h.44c.18,0,.26.09.44.09.09.09.18.09.35.18q0,.09.09.09l.09.09.18.18.18.18v.09h.09l.09.18.18.18c0,.09.09.18.18.35l.53,1.15c.26.88.53,1.85.71,2.82.18,1.06.26,2.03.35,3,.18,2.03.18,4.14.18,6.17s-.09,4.14-.26,6.26c-.09,2.12-.26,4.14-.53,6.26-.35,4.14-.88,8.29-1.5,12.43-.62,4.14-1.23,8.28-2.03,12.43-.71,4.14-1.5,8.28-2.29,12.34l-1.32,6.17-.62,3.08-.35,1.59-.35,1.5c-.79,4.23-1.59,8.37-2.2,12.52-.71,4.14-1.23,8.37-1.76,12.52-.53,4.23-.97,8.46-1.32,12.6-.35,4.23-.71,8.46-.88,12.69-.26,4.23-.35,8.46-.35,12.69.09,1.06.09,2.12.09,3.17.09,1.15.09,2.2.18,3.26.09,1.06.26,2.12.35,3.26.18,1.06.44,2.12.71,3.26.21.64.76,1.05,1.38,1.05.15,0,.31-.02.47-.08.79-.18,1.23-1.06,1.06-1.85-.26-.88-.53-1.85-.62-2.82-.18-1.06-.26-2.03-.35-3.08-.09-.97-.09-2.03-.18-3.08,0-1.06,0-2.03-.09-3.08,0-4.14.18-8.37.35-12.52.44-8.37,1.32-16.75,2.38-25.03.97-8.28,2.29-16.66,3.88-24.85l.26-1.5.35-1.59.71-3.08c.44-2.03.79-4.05,1.23-6.17.79-4.14,1.59-8.28,2.29-12.43Z"/>
          <path class="cls-2" d="M209.01,383.22c.18.44.44.88.79,1.32.18.18.44.35.71.44.09.09.18.18.26.18l.09.09q.09,0,.18.09c.35.09.71.26,1.06.26.71.18,1.41.26,2.12.26.62,0,1.23-.09,1.85-.18,1.32-.09,2.47-.44,3.7-.71,1.15-.35,2.29-.71,3.44-1.23,1.15-.44,2.2-.88,3.26-1.5.62-.26,1.14-.53,1.67-.88.26-.18.53-.35.71-.53.26-.09.53-.26.79-.44l.09-.09c.71-.53.79-1.5.27-2.2-.3-.4-.75-.6-1.19-.6-.33,0-.66.11-.92.34h-.09c-.79.62-1.76,1.23-2.73,1.76-.97.53-1.94,1.06-3,1.5-.97.44-2.03.79-3.08,1.06-1.06.35-2.12.53-3.17.71-.53,0-1.06.09-1.59.09s-.97-.09-1.41-.18l-.09-.09h-.18c-.09,0-.09-.09-.09-.09h-.09l-.09-.09h-.18l-.09-.09s0-.09-.09-.27c0-.09-.09-.26-.09-.53v-1.32l.26-1.59c.18-.53.26-1.06.44-1.59l.09-.44.09-.26v-.26l.09-.09v-.44s.03.02.04.02c.11,0-.46-1.37-1.64-1.37-.19,0-.39.03-.6.11-.62.26-.53.35-.62.44l-.09.09-.09.09v.09q-.09.09-.09.18c-.09.09-.09.18-.09.18l-.18.26v.09l-.18.26c-.18-.44-.62-.7-1.15-.79-.62-.09-1.23-.18-1.94-.18-.62,0-1.32.09-2.03.18-.71.18-1.41.35-2.03.62l-.26.18-.26.09c-.09.09-.26.18-.44.35-.26.18-.62.35-.88.62-.12.12-.23.24-.34.35-.13.1-.26.21-.37.35l-.18.26c-.09,0-.09.09-.18.18-.09.18-.26.26-.44.44-.26.35-.53.62-.88.88-.26.35-.53.62-.88.88-.35.35-.62.62-.97.88-.62.53-1.32,1.06-2.03,1.59-.26.26-.62.44-.97.71-.35.18-.71.35-.97.53-.09,0-.18,0-.26.09h-.53c0-.09-.09-.09-.09-.09,0-.09-.09-.09-.09-.18q-.09-.09-.09-.18l-.09-.09v-.35c-.09-.09-.09-.18-.09-.35-.09-.18-.09-.44-.18-.71-.09-.53-.26-.97-.44-1.5-.18-.44-.44-.97-.79-1.5-.26-.44-.71-.97-1.23-1.32-.53-.44-1.23-.71-1.85-.79-.18-.09-.35-.09-.53-.09h-1.23c-.09.09-.18.09-.26.09-.35.09-.71.26-.97.44-.35.09-.53.26-.79.44-.44.35-.79.79-1.15,1.15-.35.35-.71.71-.97,1.06-.53.79-1.06,1.5-1.59,2.2l-.79.88-.09.09h-.09q0,.09-.09.09t-.09.09l-.35.26h-.09v-.26c0-.35.09-.79.09-1.23l.53-2.47c.09-.44.18-.79.35-1.15.09-.18.09-.35.18-.53s.18-.35.18-.44c.09,0,.09-.09.09-.09.44-.79.18-1.68-.62-2.12-.26-.14-.53-.21-.79-.21-.54,0-1.03.29-1.33.83-.18.35-.26.62-.35.88l-.26.71s0,0,0,0c-.79.62-1.76,1.23-2.73,1.76-.97.53-1.94,1.06-3,1.5-.97.44-2.03.79-3.08,1.06-1.06.35-2.12.53-3.17.71-.53,0-1.06.09-1.59.09s-.97-.09-1.41-.18l-.09-.09h-.18c-.09,0-.09-.09-.09-.09h-.09l-.09-.09h-.18l-.09-.09s0-.09-.09-.27c0-.09-.09-.26-.09-.53v-1.32l.26-1.59c.18-.53.26-1.06.44-1.59l.09-.44.09-.26v-.26l.09-.09v-.44s.03.02.04.02c.11,0-.46-1.37-1.64-1.37-.19,0-.39.03-.6.11-.62.26-.53.35-.62.44l-.09.09-.09.09v.09q-.09.09-.09.18c-.09.09-.09.18-.09.18l-.18.26v.09l-.18.26c-.18-.44-.62-.7-1.15-.79-.62-.09-1.23-.18-1.94-.18-.62,0-1.32.09-2.03.18-.71.18-1.41.35-2.03.62l-.26.18-.26.09c-.09.09-.26.18-.44.35-.26.18-.62.35-.88.62-.53.53-.97,1.06-1.32,1.76-.26.27-.35.62-.53.97-.09.18-.18.35-.18.53q0,.09-.09.18v.09l-.09.26c0,.35-.09.71-.09,1.15,0,.35,0,.79.09,1.23s.26.88.62,1.32c.09.26.26.44.44.62l.71.44c.44.26.88.35,1.32.44.18.04.37.07.57.07s.4-.02.57-.07c.44,0,.79-.09,1.15-.18.18-.09.35-.09.53-.18.18-.09.35-.09.53-.18.71-.35,1.23-.71,1.76-1.15.18-.09.26-.18.35-.26.18-.09.26-.26.44-.35.18-.18.44-.44.71-.62.35-.35.62-.71.97-1.06l.26,1.06c.18.44.44.88.79,1.32.18.18.44.35.71.44.09.09.18.18.26.18l.09.09q.09,0,.18.09c.35.09.71.26,1.06.26.71.18,1.41.26,2.12.26.62,0,1.23-.09,1.85-.18,1.32-.09,2.47-.44,3.7-.71,1.15-.35,2.29-.71,3.44-1.23,1.15-.44,2.2-.88,3.26-1.5.16-.07.3-.14.44-.21,0,.01,0,.02,0,.03,0,.44-.09.97-.09,1.41v1.59c0,.18,0,.35.09.62,0,.09.09.09.09.18s.09.09.09.18c0,0,0,.09.09.18q.09.09.09.18.09,0,.09.09c.09,0,.09.09.09.09q.09,0,.09.09h.09l.09.09s.09,0,.09.09h.18l.09.09h.18s0,.09.09.09h.97c.35,0,.71-.09.97-.18.26-.09.53-.18.79-.35.26-.09.53-.26.79-.44.09-.09.18-.09.18-.18.09,0,.18-.09.18-.09l.18-.18.18-.09.26-.35c.09-.09.18-.18.26-.26l.53-.53c.62-.71,1.15-1.41,1.76-2.03.26-.35.53-.71.79-.97.26-.26.53-.53.79-.71l.35-.26c.09,0,.18-.09.26-.09h.79c.09,0,.09.09.18.09s.18.09.26.18c.18.09.35.26.53.53.35.53.71,1.23.88,1.94.09.18.09.44.09.62.09.09.09.18.09.35.09.09.09.26.09.44l.09.18c0,.09.09.18.09.26.09.09.09.26.18.44.18.26.35.62.71.88.26.26.53.53.97.71.35.18.71.26,1.06.35h.88c.09-.09.18-.09.26-.09h.09l.18-.09h.18c.18-.09.35-.09.44-.18.53-.18.97-.44,1.41-.71.44-.18.88-.44,1.23-.71.79-.53,1.59-1.15,2.29-1.76.03-.03.06-.06.09-.08.1.32.27.64.52.96.09.26.26.44.44.62l.71.44c.44.26.88.35,1.32.44.18.04.37.07.57.07s.4-.02.57-.07c.44,0,.79-.09,1.15-.18.18-.09.35-.09.53-.18.18-.09.35-.09.53-.18.71-.35,1.23-.71,1.76-1.15.18-.09.26-.18.35-.26.18-.09.26-.26.44-.35.18-.18.44-.44.71-.62.35-.35.62-.71.97-1.06l.26,1.06ZM155.25,378.55c-.62.88-1.32,1.76-2.12,2.56-.35.35-.71.71-1.15.97-.35.35-.79.62-1.15.79-.09.09-.18.09-.26.09-.18.09-.26.09-.35.18-.18,0-.35.09-.53.09h-.53c-.18-.09-.26-.09-.35-.18q-.09,0-.09-.09c-.09-.09-.09-.18-.09-.26-.09-.18-.09-.26,0-.53v-.44s0-.09.09-.18v-.26l.18-.26c0-.18.18-.35.26-.53.18-.44.44-.71.79-1.06.18-.09.35-.26.53-.35l.26-.18.09-.09.18-.09c.44-.18.79-.26,1.32-.35.44-.09.88-.18,1.41-.18.44,0,.97.09,1.5.09v.09h.18c0,.09-.09.09-.18.18ZM207.69,378.55c-.62.88-1.32,1.76-2.12,2.56-.35.35-.71.71-1.15.97-.35.35-.79.62-1.15.79-.09.09-.18.09-.26.09-.18.09-.26.09-.35.18-.18,0-.35.09-.53.09h-.53c-.18-.09-.26-.09-.35-.18q-.09,0-.09-.09c-.09-.09-.09-.18-.09-.26-.09-.18-.09-.26,0-.53v-.44s0-.09.09-.18v-.26l.18-.26c0-.18.18-.35.26-.53.18-.44.44-.71.79-1.06.18-.09.35-.26.53-.35l.26-.18.09-.09.18-.09c.44-.18.79-.26,1.32-.35.44-.09.88-.18,1.41-.18.44,0,.97.09,1.5.09v.09h.18c0,.09-.09.09-.18.18Z"/>
          <g>
            <path class="cls-2" d="M310.54,448.62l-.04-.72c.02.18.1.32.18.4l1.12-1.12,1.43,1.44h-2.69Z"/>
            <path class="cls-2" d="M311.25,447.74l.09.09c-.09,0,0,0-.09-.09M312.37,446.63l-2.25,2.23c-.26-.26-.41-.65-.41-1.03,0,.78.61,1.59,1.63,1.59h3.79l-2.67-2.69-.09-.09h0Z"/>
          </g>
          <path class="cls-2" d="M322.09,318.35l1.59-9.43c.53-3.17,1.06-6.43,1.32-9.69.09-1.59.26-3.26.26-4.94,0-.79-.09-1.67-.18-2.47,0-.88-.18-1.76-.35-2.64-.18-.44-.26-.88-.44-1.41-.26-.44-.53-.88-.88-1.41l-.79-.62c-.35-.18-.71-.35-1.06-.44-.35-.09-.71-.09-1.06-.09s-.62.09-.88.18c-.35.09-.53.26-.79.35-.26.09-.44.26-.71.35l-1.06.88c-.71.62-1.32,1.23-1.85,1.85-1.14,1.32-2.03,2.73-2.91,4.14-.88,1.41-1.67,2.82-2.47,4.23-.71,1.5-1.41,2.91-2.12,4.41l-.97,2.29-.18.53-.26.62c-.18.35-.26.71-.44,1.15l-1.59,4.58c-.53,1.5-1.06,3-1.5,4.49-1.06,3.08-2.03,6.17-3,9.17l-5.82,18.33c-1.94,6.08-3.88,12.25-5.91,18.33-.88,2.91-1.85,5.82-2.82,8.73.62-2.91,1.32-5.91,1.94-8.9l2.12-9.34c1.41-6.26,2.82-12.52,4.14-18.77l2.03-9.43c.62-3.17,1.15-6.35,1.76-9.52.53-3.17.97-6.35,1.41-9.52.18-1.67.35-3.26.44-4.94,0-.79.09-1.67.09-2.47-.09-.88-.09-1.76-.18-2.64-.09-.44-.18-.88-.35-1.41-.09-.26-.18-.53-.35-.79-.09-.18-.18-.35-.26-.44l-.18-.26c-.09-.09-.18-.09-.18-.18l-.26-.26c-.09-.09-.18-.09-.35-.18l-.26-.18c-.18,0-.26-.09-.44-.09-.09,0-.18-.09-.35-.09h-.62c-.09,0-.18.09-.35.09-.09,0-.18,0-.26.09-.09,0-.18,0-.18.09-.18,0-.35.09-.44.18-.09,0-.18.09-.18.09l-.18.09c-.18.09-.26.18-.35.26-.44.26-.79.62-1.06.97-.35.26-.71.62-.97.97-.53.62-1.06,1.23-1.59,1.94-.44.71-.97,1.32-1.41,2.03-.18.35-.44.71-.62,1.06l-.71,1.06c-.88,1.41-1.59,2.82-2.38,4.23-1.5,2.91-2.82,5.91-4.14,8.81l-3.7,8.9c-2.38,5.99-4.58,11.99-6.79,18.07-4.32,12.08-8.46,24.15-12.69,36.22-1.06,3.08-2.11,6.08-3.26,9.08-1.06,3-2.2,5.99-3.44,8.9-.26.71-.62,1.41-.88,2.2-.18.26-.35.62-.44.88v-.44c0-.79.09-1.59.18-2.29v-.62l.09-.27v-.35l.18-1.15.09-1.15.18-1.23c.88-6.26,1.94-12.6,2.82-18.95l3-18.95c3.97-25.38,7.93-50.68,11.99-75.97.09-.71-.35-1.41-1.15-1.59-.05,0-.1,0-.16,0-.65,0-1.26.5-1.34,1.16v.18l-.09.09v.18c0,.18-.09.35-.09.44l-.18.44c0,.18,0,.35-.09.44-.18.62-.35,1.23-.62,1.76l-.35.88-.18.44s-.09.09-.09.18l-.09.18-.26.44-.18.35-.18.26-.09.18-.26.35v.09c-.26.53-.09,1.23.35,1.59.2.2.45.3.71.3.09,0,.17-.01.26-.03l-10.84,67.25-3,18.95c-.97,6.34-1.94,12.69-2.82,19.04l-.18,1.15-.35,2.47v.26l-.09.35v.62c-.09.79-.18,1.59-.18,2.38-.09.88-.09,1.67,0,2.56v.71c0,.26.09.53.09.79q.09.09.09.18c0,.09.09.18.09.26l.35.62c.09.18.18.26.35.44.18.18.44.26.71.35.18.04.33.07.47.07s.28-.02.41-.07c.18,0,.35-.09.53-.18.26-.18.35-.27.53-.44.09,0,.09-.09.18-.18.09,0,.09-.09.18-.18.18-.18.26-.35.44-.62.26-.35.44-.71.71-1.15l1.06-2.2c.35-.79.71-1.5.97-2.29,1.23-3,2.38-5.99,3.53-8.99,1.06-3,2.2-6.08,3.26-9.08l6.35-18.16c2.12-5.99,4.23-12.08,6.43-18.07,2.12-5.99,4.41-11.99,6.79-17.89,1.15-3,2.38-5.91,3.61-8.81,1.32-3,2.64-5.82,4.05-8.64.71-1.41,1.5-2.82,2.29-4.14.18-.26.44-.62.62-.97.18-.35.44-.62.62-.97l1.32-1.94c.53-.62.97-1.15,1.41-1.76l.79-.79c.26-.18.44-.44.71-.62.09,0,.09-.09.18-.09l.09-.09q0,.09.09.18c.09.26.09.62.18.88.09.71.09,1.5.09,2.2.09.79,0,1.5,0,2.29-.09,1.59-.26,3.17-.44,4.67-.35,3.17-.88,6.35-1.41,9.43-1.06,6.26-2.29,12.6-3.61,18.86-1.32,6.17-2.73,12.43-4.14,18.68l-2.12,9.43c-.7,3.08-1.41,6.17-2.03,9.34l-1.06,4.76c-.35,1.5-.62,3.08-.88,4.76-.18.79-.35,1.59-.44,2.38-.09.44-.09.88-.18,1.32v.97c0,.09,0,.18.09.26,0,.18,0,.35.18.71,0,.27.9.76,1.55.76.19,0,.36-.04.48-.14.44-.18.53-.35.62-.44.18-.09.18-.18.26-.26.09-.18.18-.26.27-.35l.26-.62c.26-.44.35-.79.53-1.23.35-.71.62-1.5.88-2.29.62-1.5,1.15-3,1.67-4.49l1.59-4.58c.97-3.09,1.94-6.08,3-9.17,1.94-6.08,3.88-12.16,5.82-18.33l5.82-18.24c.97-3.08,1.94-6.08,3-9.17.44-1.5.97-3,1.5-4.49.53-1.59,1.06-3.08,1.59-4.49.09-.44.26-.79.44-1.15l.18-.53.26-.53.88-2.2c.71-1.41,1.32-2.82,2.03-4.23.79-1.41,1.5-2.73,2.38-4.05.79-1.32,1.67-2.56,2.64-3.7.53-.62.97-1.15,1.5-1.59.26-.26.53-.44.79-.62.26-.18.53-.26.71-.35.09,0,.18-.09.26-.09h.18v.09q.09,0,.18.09c.09.18.26.35.35.62l.26.88c.18.71.26,1.41.35,2.2.09.71.09,1.5.09,2.2,0,1.59-.09,3.09-.26,4.67-.26,3.17-.71,6.26-1.23,9.43l-1.67,9.43-3.26,18.95-6.35,37.9c-.97,6.35-2.03,12.69-2.91,19.04-.97,6.34-1.85,12.69-2.73,19.04l-.53,4.76c-.18,1.67-.44,3.26-.53,4.85-.18,1.59-.35,3.17-.44,4.85-.18,1.59-.26,3.17-.26,4.85v1.32l.09.26v.97c.09.18.09.44.09.62l.09.62c0,.18,0,.44.09.62l.09.62c.09.79.26,1.67.44,2.47l.18.62.09.35v.26l.18.62.26.62c.53,1.59,1.23,3.17,2.2,4.67l.09.18.09.09.18.26c.18.26.26.44.44.62l.97.97c.26.35.71.62,1.06.88.18.18.44.26.62.44l.18.09c.09,0,.18,0,.18.09.09,0,.18.09.18.09.09,0,.18,0,.35.09l1.15-2.73h-.09v-.09c-.09,0-.09-.09-.18-.09,0-.09-.09-.09-.09-.09l-.44-.53-.09-.18s-.09-.09-.09-.18l-.09-.09-.09-.18c0-.09-.09-.18-.09-.35l-.18-.26v-.18c-.29-.58-.83-.93-1.45-.93-.13,0-.26.01-.4.04-.62-1.06-1.15-2.29-1.59-3.61l-.35-1.06c0-.09,0-.18-.09-.26v-.26l-.18-.53-.44-2.29-.09-.53v-.62l-.09-.53c0-.26,0-.44-.09-.62v-.88l-.09-.26v-1.15c0-1.5.09-3.08.26-4.67.09-1.59.26-3.17.44-4.76l.53-4.76c.18-1.5.35-3.08.62-4.67.79-6.35,1.76-12.69,2.73-19.04.97-6.35,1.94-12.6,3-18.95,2.03-12.6,4.14-25.3,6.26-37.9l3.26-18.95Z"/>
          <path class="cls-2" d="M422.9,356.61h.88s.09,0,.14,0c.57,0,1.1-.5,1.1-1.16.09-.62-.44-1.23-1.06-1.32h-.44c-.62,0-1.15-.09-1.67-.09h-6.17c-2.73,0-5.46.09-8.2.18-2.64.09-5.38.35-8.11.44-1.32.09-2.64.18-4.05.18l-4.05.26c-.62,0-1.32,0-2.03.09l-2.03.09c0,.09-.09.09-.18.09l.09-.09c.18-1.15.44-2.2.62-3.35l.35-1.67c.09-.53.18-1.06.26-1.59l.79-3.26.44-1.67.26-.79c0-.27.09-.53.18-.79l.53-1.59.09-.44.09-.35.53-1.59c.09-.18.09-.26.09-.44l.18-.35.53-1.5.09-.09c.26-.79-.18-1.67-.97-1.94-.19-.08-.38-.12-.57-.12-.61,0-1.17.4-1.37,1l-.62,1.67-.09.35c-.09.18-.09.35-.18.44l-.26.79-.18.88-.18.44-.09.35-.44,1.67c-.18.53-.35,1.15-.44,1.67l-.44,1.67c-.09.53-.26,1.06-.35,1.67-.18.53-.27,1.06-.44,1.59l-.79,3.35c-.26,1.06-.53,2.2-.71,3.35l-.18.97c-.26,0-.44,0-.71.09l-8.11.62c-.62,0-1.32.09-2.03.09-.62.09-1.32.09-1.94.18-1.41.09-2.73.35-4.05.44-.71.09-1.41.09-2.03.18-.71,0-1.41.09-2.03.09-1.41.18-2.73.26-4.05.35-.88.09-1.5.79-1.41,1.67.08.82.71,1.42,1.51,1.42.05,0,.11,0,.17,0l4.05-.44c.62,0,1.32-.09,2.03-.18.62-.09,1.32-.18,1.94-.18,1.41-.09,2.73-.09,4.05-.26.71,0,1.41-.09,2.03-.18.71-.09,1.41-.09,2.03-.18l4.05-.35,3.88-.26-.53,2.56-.53,3.35c-.27,1.15-.44,2.2-.62,3.35l-.62,3.35-.53,3.35-.35,1.68-.09.79-.12.62s-.09.05-.14.08c0,.09-.09.09-.18.18l-.18.09c-.09.09-.18.18-.35.26-.18.18-.44.35-.71.53l-1.5.97c-.97.53-2.03,1.15-3.08,1.67-2.2.97-4.41,1.76-6.7,2.29-1.14.26-2.29.44-3.44.53-.62.04-1.21.07-1.8.07s-1.16-.02-1.73-.07c-1.15,0-2.29-.18-3.35-.44-.53-.09-.97-.26-1.41-.53-.44-.18-.88-.44-1.15-.71l-.35-.35c-.09-.18-.18-.35-.18-.53-.09-.26-.18-.71-.09-1.15l.09-.09v-.09c.18-.09.44-.09.62-.09.71-.09,1.41-.18,2.03-.35,1.32-.26,2.64-.79,3.88-1.5.62-.35,1.23-.79,1.76-1.23l.79-.71c.26-.35.53-.62.71-1.06.18-.26.26-.53.35-.88,0-.09.09-.18.09-.35v-.35c-.09-.09-.09-.18-.09-.35-.09-.09-.09-.26-.18-.35,0-.09-.09-.26-.18-.35,0-.09-.09-.09-.09-.18-.09,0-.09-.09-.18-.09,0-.09-.09-.09-.09-.18q-.09,0-.18-.09c-.09,0-.18-.09-.18-.09-.35-.26-.62-.26-.88-.35-.53-.09-.97-.09-1.32-.09-.44,0-.79.09-1.15.18-.18,0-.35.09-.53.09l-.44.18h-.26l-.26.09-.44.18c-.09,0-.18.09-.27.09l-.26.09-.44.18h-.09l-.18.09-.26.09c-.09.09-.26.18-.44.26l-.44.26c-.09,0-.18,0-.27.09l-.26.18-.18.09-.26.18-.44.35c-.62.53-1.06,1.06-1.5,1.67l-.35.53-.27.44-.18.53-.09.09s-.04.05-.06.07c0,0-.01,0-.02.01,0,.02-.02.03-.03.05-.02.02-.03.04-.05.06-.03.02-.06.03-.1.07l-.18.09c-.09.09-.18.18-.35.26-.18.18-.44.35-.71.53l-1.5.97c-.97.53-2.03,1.15-3.08,1.67-2.2.97-4.41,1.76-6.7,2.29-1.14.26-2.29.44-3.44.53-.62.04-1.21.07-1.8.07s-1.16-.02-1.73-.07c-1.15,0-2.29-.18-3.35-.44-.53-.09-.97-.26-1.41-.53-.44-.18-.88-.44-1.15-.71l-.35-.35c-.09-.18-.18-.35-.18-.53-.09-.26-.18-.71-.09-1.15l.09-.09v-.09c.18-.09.44-.09.62-.09.71-.09,1.41-.18,2.03-.35,1.32-.26,2.64-.79,3.88-1.5.62-.35,1.23-.79,1.76-1.23l.79-.71c.26-.35.53-.62.71-1.06.18-.26.26-.53.35-.88,0-.09.09-.18.09-.35v-.35c-.09-.09-.09-.18-.09-.35-.09-.09-.09-.26-.18-.35,0-.09-.09-.26-.18-.35,0-.09-.09-.09-.09-.18-.09,0-.09-.09-.18-.09,0-.09-.09-.09-.09-.18q-.09,0-.18-.09c-.09,0-.18-.09-.18-.09-.35-.26-.62-.26-.88-.35-.53-.09-.97-.09-1.32-.09-.44,0-.79.09-1.15.18-.18,0-.35.09-.53.09l-.44.18h-.26l-.26.09-.44.18c-.09,0-.18.09-.27.09l-.26.09-.44.18h-.09l-.18.09-.26.09c-.09.09-.26.18-.44.26l-.44.26c-.09,0-.18,0-.27.09l-.26.18-.18.09-.26.18-.44.35c-.62.53-1.06,1.06-1.5,1.67l-.35.53-.27.44-.18.53-.09.09c-.26.26-.53.71-.53,1.14v.62l-.09.09c0,.09,0,.18-.09.26v.35c-.18.71-.18,1.59.09,2.47.09.44.26.88.53,1.23.26.44.53.71.79,1.06.62.53,1.32.97,1.94,1.32.71.35,1.41.53,2.03.71.71.18,1.41.26,2.03.35.71.09,1.32.18,2.03.18,1.23,0,2.56-.09,3.88-.18,1.23-.18,2.56-.44,3.79-.7,2.56-.53,4.94-1.41,7.32-2.47,1.15-.53,2.29-1.15,3.35-1.76.26-.15.49-.28.73-.41.03.22.08.45.15.67.09.44.26.88.53,1.23.26.44.53.71.79,1.06.62.53,1.32.97,1.94,1.32.71.35,1.41.53,2.03.71.71.18,1.41.26,2.03.35.71.09,1.32.18,2.03.18,1.23,0,2.56-.09,3.88-.18,1.23-.18,2.56-.44,3.79-.7,2.56-.53,4.94-1.41,7.32-2.47,1.15-.53,2.29-1.15,3.35-1.76.31-.18.6-.34.88-.49-.31,2.03-.57,4.12-.89,6.13l-1.76,13.4c-.35,2.29-.71,4.5-.97,6.7-.26,2.29-.62,4.49-.88,6.79-.27,2.2-.53,4.49-.79,6.7l-.79,6.7-.18,1.67-.26,1.67-.35,3.44-.09.79-.09.44c0,.09,0,.26-.09.35v.44l-.09.27v.62c0,.09,0,.18.09.26,0,.09,0,.18.27.53.18.26.55.35.89.35s.65-.09.69-.18c.18-.18.26-.18.26-.26l.18-.18c.09-.09.09-.18.09-.26.09-.09.09-.18.09-.26l.09-.18c.18-.26.26-.53.35-.79l.26-.79.26-.79c.09-.09.09-.18.18-.26v-.09c.44-.35.44-1.06.18-1.5-.18-.26-.53-.44-.79-.53l.09-1.06.26-1.67.18-1.68.53-3.35.44-3.35.97-6.7,1.76-13.4c.35-2.29.62-4.49.97-6.7l1.15-6.7,1.06-6.7.53-3.26c.18-1.15.26-2.29.44-3.35.35-2.29.79-4.49,1.15-6.7.18-1.15.35-2.2.62-3.35l.26-1.67.35-1.59.26-1.67.18-.88.18-.79c.35,0,.7,0,1.06-.09l4.05-.27,5.99-.53c.71-.09,1.41-.09,2.03-.18,2.73-.18,5.38-.26,8.11-.44,2.73-.09,5.38-.27,8.11-.35.97-.09,2.03-.09,3.09-.18,0,.18.09.35.18.53.25.3.61.46.98.46.28,0,.56-.09.78-.28l.53-.35c.26-.09.53-.09.71-.18.26,0,.62-.09.88-.09ZM355.57,376.79l.26-.18.18-.18.18-.09.09-.09c.09,0,.18-.09.18-.09l.35-.18c.09-.09.26-.09.35-.18l.18-.09h.09l.09-.09.44-.09.18-.09q.09-.09.18-.09l.44-.09.35-.18.44-.09.35-.09c-.44.35-.88.71-1.32.97-.44.26-.88.44-1.41.62-.53.27-1.06.35-1.59.53-.09,0-.26,0-.35.09.09-.09.18-.26.35-.35ZM327.02,376.79l.26-.18.18-.18.18-.09.09-.09c.09,0,.18-.09.18-.09l.35-.18c.09-.09.26-.09.35-.18l.18-.09h.09l.09-.09.44-.09.18-.09q.09-.09.18-.09l.44-.09.35-.18.44-.09.35-.09c-.44.35-.88.71-1.32.97-.44.26-.88.44-1.41.62-.53.27-1.06.35-1.59.53-.09,0-.26,0-.35.09.09-.09.18-.26.35-.35Z"/>
          <path class="cls-2" d="M387.56,396.18c.35.88,1.06,1.67,2.47,1.67h.71c1.32-.26,2.91-1.15,4.23-2.38,1.5-1.5,2.29-3.08,2.2-4.67v-.26l1.32-.79c5.47-2.91,11.63-6.26,14.63-10.31.44-.53.35-1.41-.27-1.85-.21-.17-.47-.25-.73-.25-.42,0-.85.19-1.12.51-2.64,3.61-8.55,6.79-13.75,9.61-.26.18-.62.35-.88.44l-1.23-2.29c-1.32-2.38-2.73-4.85-1.76-6.61.65-1.13,1.96-1.6,2.99-1.6.09,0,.18,0,.27.01.53.09,1.06.35,1.06.53.21.56.71.96,1.26.96.14,0,.28-.02.42-.08.71-.18,1.15-.97.88-1.67-.44-1.23-1.67-2.12-3.35-2.29-.24-.03-.48-.05-.73-.05-1.81,0-3.92.86-5.08,2.87-1.76,3.08.18,6.52,1.76,9.25l1.23,2.29c-1.41.79-2.64,1.5-3.7,2.2-.88.71-3.44,2.47-2.82,4.76ZM392.32,393.36c.53-.35,1.15-.79,1.85-1.15-.35.62-.88,1.23-1.67,1.85-.97.79-1.85,1.06-2.29,1.15.18-.26.62-.88,2.12-1.85Z"/>
        </g>
      </g>
    </g>
  </g>
</svg>