<?xml version="1.0" encoding="UTF-8"?>
<svg id="Layer_2" data-name="Layer 2" xmlns="http://www.w3.org/2000/svg" viewBox="0 0 854.26 336.93">
  <defs>
    <style>
      .cls-1 {
        fill: #e94057;
      }
    </style>
  </defs>
  <g id="Layer_1-2" data-name="Layer 1">
    <g>
      <path class="cls-1" d="M366.7,75.04c-2.02,12.5-4.04,25-6.03,37.5-4.18,25.34-8.22,50.81-12.13,76.15-.34,2.04-.63,4.08-.93,6.08,2.02-2.19,3.93-4.45,5.74-6.77l2.74-17.64,2.96-19,5.93-38.15,4.88-30.67c-.95-2.53-2-5.03-3.16-7.5ZM371.25,86.51l-4.29,27.01-5.93,38.15-2.97,19-2.16,13.92c.87-1.18,1.7-2.37,2.5-3.58.71-2.25,1.42-4.53,2.11-6.78v-.03s.01-.02.01-.02l.04-.12c1.98-5.93,4.03-12.06,6.18-18.25,2.94-8.28,6.1-17,9.56-25.8,1.3-14.57-.35-29.37-5.05-43.5ZM362.7,173.97c6.29-11.19,10.49-23.27,12.54-35.65-2.28,6.03-4.46,12.1-6.62,18.16-2.06,5.91-3.99,11.71-5.92,17.49ZM359.21,61.53C330.89,18.1,276.42.73,228.06,19.73c-2.51.99-4.9,2.28-7.39,3.45,5.9,7.31,11.48,13.76,16.49,20.62,2.32,3.17,4.22,4.06,8.09,2.78,12.73-4.2,25.75-4.79,38.88-1.9,37.25,8.2,63.84,42.32,61.72,79.18-2.29,39.82-32.39,71.2-71.8,74.43-15.83,1.3-30.76-2.04-44.95-10.6,1.38-2.58,2.58-4.63,3.62-6.76,21.61-44.27,20.01-87.73-8.11-128.2C196.91,12.88,157.03-4.8,109.02,1.11,58.44,7.33,23.13,35.97,7.13,84.34c-16.24,49.12-4.52,93.35,32.91,129.21,41.26,39.52,83.65,77.86,125.63,116.64,2.53,2.34,5.49,4.46,8.63,5.81,5.56,2.41,9.65,0,10.23-6.08.41-4.31.11-8.77-.52-13.07-3.56-24.25-7.24-48.48-11.08-72.69-.82-5.13-.07-8.31,5.33-10.69,6.35-2.79,13.26-5.95,17.78-10.91,9.55-10.47,18.8-10.06,28.9-2.02,1.77,1.4,3.57,4.35,3.38,6.39-1.46,15.47-3.55,30.87-5.14,46.33-.96,9.33-2.11,18.73-1.8,28.06.24,7.21,5.3,9.41,11.54,5.83,3.35-1.93,6.37-4.61,9.15-7.36,34.06-33.75,68.07-67.55,102.05-101.38.36-.36.72-.72,1.06-1.08.25-1.44.46-2.9.69-4.43.22-1.48.44-3.01.69-4.51,4.1-26.55,8.18-52.18,12.13-76.17,1.82-11.46,3.71-23.11,5.53-34.38.32-1.97.64-3.96.96-5.95-1.78-3.53-3.77-6.99-5.97-10.36ZM181.31,195.59c-39.24,31.52-96.71,25.42-128.97-13.69-31.92-38.69-26.9-96.19,11.14-128.74,38.4-32.85,91.78-26.52,119.26.07-17.44,22.99-25.43,49.05-22.84,77.95,1.52,16.97,6.68,32.88,16.73,47.97,8.78-7.99,14.84-17.12,18.56-27.73.67-1.93-.48-4.66-1.18-6.89-6.49-20.68-4.63-40.61,5.19-59.85,1.08-2.1,2.42-4.06,4.07-6.8,19.78,29.05,19.85,84.12-21.96,117.71Z"/>
      <g>
        <path class="cls-1" d="M419.71,185.19l.54-2.43,1.08-4.72c.67-3.1,1.21-6.2,1.89-9.44,1.21-6.33,2.43-12.67,3.51-19.01,1.21-6.33,2.16-12.8,3.1-19.14s1.75-12.81,2.29-19.28c.4-3.24.67-6.47.81-9.71.27-3.24.4-6.47.4-9.71s0-6.6-.4-9.84c-.13-1.75-.27-3.37-.54-4.99-.27-1.75-.67-3.37-1.35-5.12-.27-.81-.54-1.62-1.08-2.56-.14-.14-.27-.4-.27-.54l-.4-.67-.54-.54-.27-.4c-.14,0-.14-.14-.27-.27l-.54-.54-.4-.27-.4-.27c-.4-.27-.94-.54-1.48-.81-.54-.14-1.21-.27-1.75-.27l-.4-.13h-.54c-.27,0-.54.13-.81.13-1.08.13-2.02.4-2.83.81-.94.4-1.75.94-2.56,1.35-.27.27-.67.54-1.08.81-.27.27-.67.54-.94.81l-1.08.81c-.27.27-.54.54-.94.81-4.85,4.72-8.9,9.98-12.4,15.5-3.5,5.53-6.6,11.19-9.57,17.12-2.83,5.8-5.53,11.59-8.09,17.66-4.99,11.86-9.44,23.99-13.75,36.12-2.16,6.2-4.18,12.27-6.2,18.33-1.89,6.2-3.91,12.4-5.8,18.47-1.89,6.2-3.77,12.27-5.8,18.47-.54,1.75-1.08,3.37-1.62,5.12v-.13l.14-1.08.27-2.43c.27-1.48.54-3.1.67-4.72l.4-2.43.27-2.29.81-4.85,1.35-9.44,2.97-19.14,2.97-19.01,5.93-38.15,12.13-76.29c.13-1.08-.67-2.16-1.75-2.43-.08,0-.16-.01-.24-.01-1,0-1.94.77-2.19,1.77v.27l-.13.4c0,.27,0,.4-.13.67l-.4,1.48c-.14.54-.27,1.08-.54,1.48l-.27.81c0,.27-.13.4-.13.67v.13c-.13.54,0,1.08.4,1.62-3.64,22.92-7.41,45.83-11.05,68.74-4.18,25.34-8.22,50.82-12.13,76.16-.54,3.24-.94,6.47-1.48,9.57l-.67,4.85-.4,2.29-.4,2.43c-.13,1.62-.4,3.24-.67,4.85l-.4,3.64c-.13.4-.13.81-.13,1.21l-.4,4.85c0,.81-.14,1.62-.14,2.56v1.21c0,.54,0,.94.14,1.48v.81c0,.13.13.27.13.4s0,.27.14.4c0,0,.14.27.14.4.13.13.13.27.4.54.13.27.54.54,1.08.81.32.16.68.22,1,.22.23,0,.45-.03.61-.09l.94-.4c.13-.13.27-.27.4-.4l.27-.27c0-.13.13-.13.13-.27l.14-.13c.27-.27.4-.54.4-.81l.4-.54c.13-.54.4-.81.54-1.21.67-1.62,1.21-3.24,1.75-4.72,1.08-3.1,2.02-6.2,2.97-9.17,2.02-6.2,3.91-12.4,5.8-18.47,2.02-6.2,3.91-12.27,5.93-18.33,1.89-6.2,3.91-12.27,6.07-18.33,4.18-12.13,8.63-24.13,13.61-35.99,2.43-5.8,4.99-11.73,7.82-17.39,2.83-5.66,5.93-11.32,9.3-16.71,1.75-2.56,3.5-5.26,5.39-7.68.54-.54.94-1.21,1.48-1.75l1.48-1.75c1.08-1.21,2.16-2.29,3.23-3.37l.94-.81c.27-.13.54-.4.81-.67l.81-.67c.4-.13.67-.4.94-.54.54-.4,1.21-.81,1.75-1.08.67-.27,1.21-.4,1.75-.54h.67c.27,0,.4.14.67.14.14.13.27.13.54.27q0,.13.14.13l.13.13.27.27.27.27v.13h.13l.14.27.27.27c0,.13.14.27.27.54l.81,1.75c.4,1.35.81,2.83,1.08,4.31.27,1.62.4,3.1.54,4.58.27,3.1.27,6.33.27,9.44s-.13,6.34-.4,9.57c-.14,3.23-.4,6.33-.81,9.57-.54,6.34-1.35,12.67-2.29,19.01-.94,6.34-1.89,12.67-3.1,19.01-1.08,6.34-2.29,12.67-3.5,18.87l-2.02,9.44-.94,4.72-.54,2.43-.54,2.29c-1.21,6.47-2.43,12.81-3.37,19.14-1.08,6.34-1.89,12.81-2.7,19.14-.81,6.47-1.48,12.94-2.02,19.27-.54,6.47-1.08,12.94-1.35,19.41-.4,6.47-.54,12.94-.54,19.41.14,1.62.14,3.24.14,4.85.13,1.75.13,3.37.27,4.99.14,1.62.4,3.24.54,4.99.27,1.62.67,3.24,1.08,4.99.32.97,1.17,1.6,2.12,1.6.23,0,.47-.04.71-.12,1.21-.27,1.89-1.62,1.62-2.83-.4-1.35-.81-2.83-.94-4.31-.27-1.62-.4-3.1-.54-4.72-.13-1.48-.13-3.1-.27-4.72,0-1.62,0-3.1-.14-4.72,0-6.33.27-12.8.54-19.14.67-12.81,2.02-25.61,3.64-38.28,1.48-12.67,3.5-25.48,5.93-38.01l.41-2.29Z"/>
        <path class="cls-1" d="M523.49,198.54l.4,1.62c.27.67.67,1.35,1.21,2.02.27.27.67.54,1.08.67.14.14.27.27.4.27l.13.14q.14,0,.27.13c.54.13,1.08.4,1.62.4,1.08.27,2.16.4,3.24.4.94,0,1.89-.13,2.83-.27,2.02-.13,3.77-.67,5.66-1.08,1.75-.54,3.5-1.08,5.26-1.89,1.75-.67,3.37-1.35,4.99-2.29.94-.4,1.75-.81,2.56-1.35.4-.27.81-.54,1.08-.81.4-.14.81-.4,1.21-.67l.13-.14c1.08-.81,1.21-2.29.41-3.37-.46-.62-1.15-.92-1.82-.92-.51,0-1.01.17-1.41.52h-.14c-1.21.94-2.7,1.89-4.18,2.7-1.48.81-2.97,1.62-4.58,2.29-1.48.67-3.1,1.21-4.72,1.62-1.62.54-3.23.81-4.85,1.08-.81,0-1.62.14-2.43.14s-1.48-.14-2.16-.27l-.13-.13h-.27c-.13,0-.13-.14-.13-.14h-.13l-.14-.13h-.27l-.13-.13s0-.14-.14-.41c0-.13-.14-.4-.14-.81v-2.02l.4-2.43c.27-.81.41-1.62.67-2.43l.14-.67.14-.4v-.4l.13-.14v-.67s.04.04.06.04c.17,0-.71-2.1-2.51-2.1-.28,0-.59.05-.92.17-.94.4-.81.54-.94.67l-.13.14-.13.13v.13q-.14.14-.14.27c-.13.14-.13.27-.13.27l-.27.4v.13l-.27.4c-.27-.67-.94-1.08-1.75-1.21-.94-.13-1.89-.27-2.97-.27-.94,0-2.02.14-3.1.27-1.08.27-2.16.54-3.1.94l-.4.27-.4.14c-.14.13-.4.27-.67.54-.4.27-.94.54-1.35.94-.18.18-.35.36-.52.54-.21.15-.4.32-.56.54l-.27.4c-.14,0-.14.14-.27.27-.13.27-.4.4-.67.67-.4.54-.81.94-1.35,1.35-.4.54-.81.94-1.35,1.35-.54.54-.94.94-1.48,1.35-.94.81-2.02,1.62-3.1,2.43-.4.4-.94.67-1.48,1.08-.54.27-1.08.54-1.48.81-.14,0-.27,0-.41.13h-.81c0-.13-.14-.13-.14-.13,0-.13-.13-.13-.13-.27q-.14-.13-.14-.27l-.13-.14v-.54c-.13-.14-.13-.27-.13-.54-.14-.27-.14-.67-.27-1.08-.14-.81-.4-1.48-.67-2.29-.27-.67-.67-1.48-1.21-2.29-.4-.67-1.08-1.48-1.89-2.02-.81-.67-1.89-1.08-2.83-1.21-.27-.13-.54-.13-.81-.13h-1.89c-.14.13-.27.13-.4.13-.54.14-1.08.4-1.48.67-.54.14-.81.4-1.21.67-.67.54-1.21,1.21-1.75,1.75s-1.08,1.08-1.48,1.62c-.81,1.21-1.62,2.29-2.43,3.37l-1.21,1.35-.13.13h-.13q0,.13-.14.13t-.14.14l-.54.4h-.13v-.4c0-.54.13-1.21.13-1.89l.81-3.77c.13-.67.27-1.21.54-1.75.13-.27.13-.54.27-.81s.27-.54.27-.67c.14,0,.14-.13.14-.13.67-1.21.27-2.56-.94-3.23-.4-.22-.8-.32-1.2-.32-.82,0-1.58.45-2.03,1.27-.27.54-.4.94-.54,1.35l-.4,1.08s0,0,0,0c-1.21.94-2.69,1.88-4.17,2.69-1.48.81-2.97,1.62-4.58,2.29-1.48.67-3.1,1.21-4.72,1.62-1.62.54-3.23.81-4.85,1.08-.81,0-1.62.14-2.43.14s-1.48-.14-2.16-.27l-.13-.13h-.27c-.13,0-.13-.14-.13-.14h-.14l-.14-.13h-.27l-.13-.13s0-.14-.14-.41c0-.13-.14-.4-.14-.81v-2.02l.4-2.43c.27-.81.4-1.62.67-2.43l.14-.67.14-.4v-.4l.13-.14v-.67s.04.04.06.04c.17,0-.71-2.1-2.51-2.1-.28,0-.59.05-.92.17-.94.4-.81.54-.94.67l-.13.14-.14.13v.13q-.14.14-.14.27c-.13.14-.13.27-.13.27l-.27.4v.13l-.27.4c-.27-.67-.94-1.08-1.75-1.21-.94-.13-1.89-.27-2.97-.27-.94,0-2.02.14-3.1.27-1.08.27-2.16.54-3.1.94l-.4.27-.4.14c-.14.13-.4.27-.67.54-.41.27-.94.54-1.35.94-.81.81-1.48,1.62-2.02,2.7-.4.41-.54.94-.81,1.48-.13.27-.27.54-.27.81q0,.13-.14.27v.13l-.14.4c0,.54-.14,1.08-.14,1.75,0,.54,0,1.21.14,1.89s.4,1.35.94,2.02c.14.4.4.67.67.94l1.08.67c.67.4,1.35.54,2.02.67.27.07.57.1.88.1s.61-.03.88-.1c.67,0,1.21-.13,1.75-.27.27-.13.54-.13.81-.27.27-.14.54-.14.81-.27,1.08-.54,1.89-1.08,2.7-1.75.27-.13.4-.27.54-.4.27-.13.4-.4.67-.54.27-.27.67-.67,1.08-.94.54-.54.94-1.08,1.48-1.62l.4,1.62c.27.67.67,1.35,1.21,2.02.27.27.67.54,1.08.67.13.14.27.27.4.27l.14.14q.13,0,.27.13c.54.13,1.08.4,1.62.4,1.08.27,2.16.4,3.23.4.94,0,1.89-.13,2.83-.27,2.02-.13,3.77-.67,5.66-1.08,1.75-.54,3.5-1.08,5.26-1.89,1.75-.67,3.37-1.35,4.99-2.29.24-.1.45-.21.68-.32,0,.02,0,.03,0,.05,0,.67-.14,1.48-.14,2.16v2.43c0,.27,0,.54.14.94,0,.14.13.14.13.27s.14.13.14.27c0,0,0,.13.13.27q.13.13.13.27.14,0,.14.14c.14,0,.14.13.14.13q.13,0,.13.14h.14l.13.13s.13,0,.13.13h.27l.14.14h.27s0,.13.14.13h1.48c.54,0,1.08-.13,1.48-.27.4-.13.81-.27,1.21-.54.4-.14.81-.4,1.21-.67.13-.14.27-.14.27-.27.14,0,.27-.13.27-.13l.27-.27.27-.13.4-.54c.13-.13.27-.27.4-.4l.81-.81c.94-1.08,1.75-2.16,2.7-3.1.4-.54.81-1.08,1.21-1.48.4-.4.81-.81,1.21-1.08l.54-.4c.14,0,.27-.14.4-.14h1.21c.14,0,.14.14.27.14s.27.13.4.27c.27.13.54.4.81.81.54.81,1.08,1.89,1.35,2.97.14.27.14.67.14.94.13.13.13.27.13.54.14.14.14.4.14.67l.14.27c0,.13.13.27.13.4.13.13.13.4.27.67.27.4.54.94,1.08,1.35.4.4.81.81,1.48,1.08.54.27,1.08.4,1.62.54h1.35c.14-.13.27-.13.4-.13h.14l.27-.14h.27c.27-.13.54-.13.67-.27.81-.27,1.48-.67,2.16-1.08.67-.27,1.35-.67,1.89-1.08,1.21-.81,2.43-1.75,3.5-2.7.05-.04.09-.09.14-.13.16.49.41.98.8,1.48.14.4.4.67.67.94l1.08.67c.67.4,1.35.54,2.02.67.27.07.57.1.88.1s.61-.03.88-.1c.67,0,1.21-.13,1.75-.27.27-.13.54-.13.81-.27.27-.14.54-.14.81-.27,1.08-.54,1.89-1.08,2.7-1.75.27-.13.4-.27.54-.4.27-.13.4-.4.67-.54.27-.27.67-.67,1.08-.94.54-.54.94-1.08,1.48-1.62ZM441.67,193.01c-.94,1.35-2.02,2.7-3.23,3.91-.54.54-1.08,1.08-1.75,1.48-.54.54-1.21.94-1.75,1.21-.14.14-.27.14-.4.14-.27.13-.4.13-.54.27-.27,0-.54.14-.81.14h-.81c-.27-.14-.4-.14-.54-.27q-.13,0-.13-.13c-.14-.14-.14-.27-.14-.4-.14-.27-.14-.4,0-.81v-.67s0-.13.14-.27v-.4l.27-.4c0-.27.27-.54.4-.81.27-.67.67-1.08,1.21-1.62.27-.14.54-.4.81-.54l.4-.27.14-.13.27-.13c.67-.27,1.21-.4,2.02-.54.67-.13,1.35-.27,2.16-.27.67,0,1.48.13,2.29.13v.13h.27c0,.14-.13.14-.27.27ZM518.63,196.92c-.54.54-1.08,1.08-1.75,1.48-.54.54-1.21.94-1.75,1.21-.14.14-.27.14-.4.14-.27.13-.4.13-.54.27-.27,0-.54.14-.81.14h-.81c-.27-.14-.4-.14-.54-.27q-.13,0-.13-.13c-.13-.14-.13-.27-.13-.4-.14-.27-.14-.4,0-.81v-.67s0-.13.13-.27v-.4l.27-.4c0-.27.27-.54.4-.81.27-.67.67-1.08,1.21-1.62.27-.14.54-.4.81-.54l.4-.27.14-.13.27-.13c.67-.27,1.21-.4,2.02-.54.67-.13,1.35-.27,2.16-.27.67,0,1.48.13,2.29.13v.13h.27c0,.14-.13.14-.27.27-.94,1.35-2.02,2.7-3.23,3.91Z"/>
        <g>
          <path class="cls-1" d="M679.38,299.96l-.06-.9c.03.21.13.38.21.47l1.42-1.4,1.81,1.84h-3.39Z"/>
          <path class="cls-1" d="M680.24,298.82l.13.14c-.13,0,0,0-.13-.14M681.66,297.42l-2.84,2.81c-.32-.32-.51-.8-.51-1.29,0,.99.77,2.02,2.07,2.02h4.79l-3.37-3.41-.13-.14h0Z"/>
        </g>
        <path class="cls-1" d="M696.82,100.95l2.43-14.42c.81-4.85,1.62-9.84,2.02-14.83.13-2.43.4-4.99.4-7.55,0-1.21-.13-2.56-.27-3.77,0-1.35-.27-2.7-.54-4.04-.27-.67-.4-1.35-.67-2.16-.4-.67-.81-1.35-1.35-2.16l-1.21-.94c-.54-.27-1.08-.54-1.62-.67-.54-.13-1.08-.13-1.62-.13s-.94.13-1.35.27c-.54.13-.81.4-1.21.54-.4.13-.67.4-1.08.54l-1.62,1.35c-1.08.94-2.02,1.89-2.83,2.83-1.75,2.02-3.1,4.18-4.45,6.34-1.35,2.16-2.56,4.31-3.77,6.47-1.08,2.29-2.16,4.45-3.23,6.74l-1.48,3.5-.27.81-.4.94c-.27.54-.4,1.08-.67,1.75l-2.43,7.01c-.81,2.29-1.62,4.58-2.29,6.87-1.62,4.72-3.1,9.44-4.58,14.02l-8.9,28.04c-2.97,9.3-5.93,18.74-9.03,28.04-1.35,4.45-2.83,8.9-4.31,13.34.94-4.45,2.02-9.03,2.97-13.61l3.24-14.29c2.16-9.57,4.31-19.14,6.34-28.71l3.1-14.42c.94-4.85,1.75-9.71,2.7-14.56.81-4.85,1.48-9.71,2.16-14.56.27-2.56.54-4.99.67-7.55,0-1.21.13-2.56.13-3.77-.13-1.35-.13-2.7-.27-4.04-.14-.67-.27-1.35-.54-2.16-.13-.4-.27-.81-.54-1.21-.13-.27-.27-.54-.4-.67l-.27-.4c-.14-.13-.27-.13-.27-.27l-.4-.4c-.14-.13-.27-.13-.54-.27l-.4-.27c-.27,0-.4-.14-.67-.14-.13,0-.27-.13-.54-.13h-.94c-.13,0-.27.13-.54.13-.14,0-.27,0-.4.14-.14,0-.27,0-.27.13-.27,0-.54.14-.67.27-.14,0-.27.13-.27.13l-.27.14c-.27.13-.4.27-.54.4-.67.4-1.21.94-1.62,1.48-.54.4-1.08.94-1.48,1.48-.81.94-1.62,1.89-2.43,2.97-.67,1.08-1.48,2.02-2.16,3.1-.27.54-.67,1.08-.94,1.62l-1.08,1.62c-1.35,2.16-2.43,4.31-3.64,6.47-2.29,4.45-4.31,9.03-6.34,13.48l-5.66,13.61c-3.64,9.17-7.01,18.33-10.38,27.63-6.6,18.47-12.94,36.93-19.41,55.4-1.62,4.72-3.23,9.3-4.99,13.88-1.62,4.58-3.37,9.17-5.26,13.61-.4,1.08-.94,2.16-1.35,3.37-.27.4-.54.94-.67,1.35v-.67c0-1.21.13-2.43.27-3.51v-.94l.14-.41v-.54l.27-1.75.14-1.75.27-1.89c1.35-9.57,2.97-19.28,4.31-28.98l4.58-28.98c6.07-38.82,12.13-77.51,18.33-116.19.14-1.08-.54-2.16-1.75-2.43-.08-.01-.16-.01-.24-.01-.99,0-1.93.77-2.05,1.77v.27l-.13.14v.27c0,.27-.14.54-.14.67l-.27.67c0,.27,0,.54-.13.67-.27.94-.54,1.89-.94,2.7l-.54,1.35-.27.67s-.13.14-.13.27l-.14.27-.4.67-.27.54-.27.4-.14.27-.4.54v.14c-.4.81-.13,1.89.54,2.43.3.3.68.45,1.08.45.13,0,.27-.02.4-.05l-16.58,102.85-4.58,28.98c-1.48,9.7-2.97,19.41-4.31,29.11l-.27,1.75-.54,3.77v.4l-.13.54v.94c-.14,1.21-.27,2.43-.27,3.64-.14,1.35-.14,2.56,0,3.91v1.08c0,.4.13.81.13,1.21q.14.14.14.27c0,.14.13.27.13.4l.54.94c.14.27.27.4.54.67.27.27.67.4,1.08.54.27.07.51.1.72.1s.42-.03.62-.1c.27,0,.54-.13.81-.27.4-.27.54-.41.81-.67.14,0,.14-.14.27-.27.13,0,.13-.13.27-.27.27-.27.4-.54.67-.94.4-.54.67-1.08,1.08-1.75l1.62-3.37c.54-1.21,1.08-2.29,1.48-3.5,1.89-4.58,3.64-9.17,5.39-13.75,1.62-4.58,3.37-9.3,4.99-13.88l9.71-27.77c3.23-9.17,6.47-18.47,9.84-27.63,3.23-9.17,6.74-18.33,10.38-27.36,1.75-4.58,3.64-9.03,5.53-13.48,2.02-4.58,4.04-8.9,6.2-13.21,1.08-2.16,2.29-4.31,3.5-6.33.27-.4.67-.94.94-1.48.27-.54.67-.94.94-1.48l2.02-2.97c.81-.94,1.48-1.75,2.16-2.7l1.21-1.21c.4-.27.67-.67,1.08-.94.13,0,.13-.14.27-.14l.14-.13q0,.13.13.27c.14.4.14.94.27,1.35.13,1.08.13,2.29.13,3.37.14,1.21,0,2.29,0,3.51-.13,2.43-.4,4.85-.67,7.14-.54,4.85-1.35,9.71-2.16,14.42-1.62,9.57-3.5,19.27-5.53,28.85-2.02,9.44-4.18,19.01-6.33,28.58l-3.24,14.42c-1.08,4.72-2.16,9.44-3.1,14.29l-1.62,7.28c-.54,2.29-.94,4.72-1.35,7.28-.27,1.21-.54,2.43-.67,3.64-.14.67-.14,1.35-.27,2.02v1.48c0,.13,0,.27.13.4,0,.27,0,.54.27,1.08,0,.42,1.37,1.16,2.37,1.16.29,0,.55-.06.73-.21.67-.27.81-.54.94-.67.27-.13.27-.27.4-.4.14-.27.27-.4.41-.54l.4-.94c.4-.67.54-1.21.81-1.89.54-1.08.94-2.29,1.35-3.51.94-2.29,1.75-4.58,2.56-6.87l2.43-7.01c1.48-4.72,2.97-9.3,4.58-14.02,2.97-9.3,5.93-18.6,8.9-28.04l8.9-27.9c1.48-4.72,2.97-9.3,4.58-14.02.67-2.29,1.48-4.58,2.29-6.87.81-2.43,1.62-4.72,2.43-6.87.13-.67.4-1.21.67-1.75l.27-.81.4-.81,1.35-3.37c1.08-2.16,2.02-4.31,3.1-6.47,1.21-2.16,2.29-4.18,3.64-6.2,1.21-2.02,2.56-3.91,4.04-5.66.81-.94,1.48-1.75,2.29-2.43.4-.4.81-.67,1.21-.94.4-.27.81-.4,1.08-.54.13,0,.27-.13.4-.13h.27v.13q.13,0,.27.13c.13.27.4.54.54.94l.4,1.35c.27,1.08.4,2.16.54,3.37.13,1.08.13,2.29.13,3.37,0,2.43-.13,4.72-.4,7.14-.4,4.85-1.08,9.57-1.89,14.42l-2.56,14.42-4.99,28.98-9.71,57.96c-1.48,9.71-3.1,19.41-4.45,29.12-1.48,9.7-2.83,19.41-4.18,29.11l-.81,7.28c-.27,2.56-.67,4.99-.81,7.41-.27,2.43-.54,4.85-.67,7.41-.27,2.43-.4,4.85-.4,7.41v2.02l.14.4v1.48c.13.27.13.67.13.94l.13.94c0,.27,0,.67.14.94l.13.94c.13,1.21.4,2.56.67,3.77l.27.94.13.54v.4l.27.94.4.94c.81,2.43,1.89,4.85,3.37,7.14l.14.27.13.13.27.4c.27.4.4.67.67.94l1.48,1.48c.4.54,1.08.94,1.62,1.35.27.27.67.4.94.67l.27.13c.13,0,.27,0,.27.13.14,0,.27.14.27.14.14,0,.27,0,.54.13l1.75-4.18h-.14v-.13c-.13,0-.13-.13-.27-.13,0-.14-.13-.14-.13-.14l-.67-.81-.13-.27s-.13-.13-.13-.27l-.14-.13-.13-.27c0-.13-.14-.27-.14-.54l-.27-.4v-.27c-.45-.89-1.26-1.42-2.22-1.42-.2,0-.4.02-.61.07-.94-1.62-1.75-3.51-2.43-5.53l-.54-1.62c0-.13,0-.27-.14-.4v-.4l-.27-.81-.67-3.51-.13-.81v-.94l-.13-.81c0-.4,0-.67-.14-.94v-1.35l-.13-.4v-1.75c0-2.29.13-4.72.4-7.14.13-2.43.4-4.85.67-7.28l.81-7.28c.27-2.29.54-4.72.94-7.14,1.21-9.71,2.7-19.41,4.18-29.12,1.48-9.71,2.97-19.27,4.58-28.98,3.1-19.28,6.34-38.69,9.57-57.96l4.99-28.98Z"/>
        <path class="cls-1" d="M803.02,161.87l9.17-.81c1.08-.13,2.16-.13,3.1-.27,4.18-.27,8.22-.4,12.4-.67,4.18-.14,8.22-.41,12.4-.54,1.48-.13,3.1-.13,4.72-.27,0,.27.13.54.27.81.38.46.94.7,1.5.7.42,0,.85-.14,1.2-.43l.81-.54c.4-.14.81-.14,1.08-.27.4,0,.94-.13,1.35-.13h1.35c.07,0,.14.01.21.01.87,0,1.68-.77,1.68-1.77.13-.94-.67-1.89-1.62-2.02h-.67c-.94,0-1.75-.13-2.56-.13h-9.44c-4.18,0-8.36.13-12.54.27-4.04.13-8.22.54-12.4.67-2.02.14-4.04.27-6.2.27l-6.2.4c-.94,0-2.02,0-3.1.14l-3.1.13c0,.13-.14.13-.27.13l.13-.13c.27-1.75.67-3.37.94-5.12l.54-2.56c.13-.81.27-1.62.4-2.43l1.21-4.99.67-2.56.4-1.21c0-.41.13-.81.27-1.21l.81-2.43.14-.67.13-.54.81-2.43c.13-.27.13-.4.13-.67l.27-.54.81-2.29.13-.14c.4-1.21-.27-2.56-1.48-2.97-.29-.13-.59-.19-.88-.19-.93,0-1.78.61-2.09,1.54l-.94,2.56-.14.54c-.13.27-.13.54-.27.67l-.4,1.21-.27,1.35-.27.67-.13.54-.67,2.56c-.27.81-.54,1.75-.67,2.56l-.67,2.56c-.13.81-.4,1.62-.54,2.56-.27.81-.41,1.62-.67,2.43l-1.21,5.12c-.4,1.62-.81,3.37-1.08,5.12l-.27,1.48c-.4,0-.67,0-1.08.13l-12.4.94c-.94,0-2.02.14-3.1.14-.94.13-2.02.13-2.97.27-2.16.13-4.18.54-6.2.67-1.08.13-2.16.13-3.1.27-1.08,0-2.16.14-3.1.14-2.16.27-4.18.4-6.2.54-1.35.13-2.29,1.21-2.16,2.56.13,1.26,1.08,2.17,2.31,2.17.08,0,.17,0,.26-.01l6.2-.67c.94,0,2.02-.13,3.1-.27.94-.14,2.02-.27,2.97-.27,2.16-.13,4.18-.13,6.2-.4,1.08,0,2.16-.14,3.1-.27,1.08-.13,2.16-.13,3.1-.27l6.2-.54,5.93-.4-.81,3.91-.81,5.12c-.41,1.75-.67,3.37-.94,5.12l-.94,5.12-.81,5.12-.54,2.56-.13,1.21-.19.95c-.07.04-.14.08-.21.13,0,.13-.13.13-.27.27l-.27.13c-.13.14-.27.27-.54.4-.27.27-.67.54-1.08.81l-2.29,1.48c-1.48.81-3.1,1.75-4.72,2.56-3.37,1.48-6.74,2.7-10.25,3.51-1.75.4-3.5.67-5.26.81-.94.07-1.85.1-2.75.1s-1.77-.03-2.65-.1c-1.75,0-3.51-.27-5.12-.67-.81-.13-1.48-.4-2.16-.81-.67-.27-1.35-.67-1.75-1.08l-.54-.54c-.13-.27-.27-.54-.27-.81-.14-.4-.27-1.08-.14-1.75l.14-.13v-.14c.27-.13.67-.13.94-.13,1.08-.14,2.16-.27,3.1-.54,2.02-.4,4.04-1.21,5.93-2.29.94-.54,1.89-1.21,2.7-1.89l1.21-1.08c.4-.54.81-.94,1.08-1.62.27-.4.4-.81.54-1.35,0-.13.13-.27.13-.54v-.54c-.13-.14-.13-.27-.13-.54-.14-.13-.14-.4-.27-.54,0-.13-.13-.4-.27-.54,0-.13-.13-.13-.13-.27-.14,0-.14-.13-.27-.13,0-.13-.13-.13-.13-.27q-.14,0-.27-.13c-.14,0-.27-.14-.27-.14-.54-.4-.94-.4-1.35-.54-.81-.14-1.48-.14-2.02-.14-.67,0-1.21.14-1.75.27-.27,0-.54.14-.81.14l-.67.27h-.4l-.4.14-.67.27c-.14,0-.27.13-.41.13l-.4.13-.67.27h-.14l-.27.13-.4.14c-.13.13-.4.27-.67.4l-.67.4c-.14,0-.27,0-.41.13l-.4.27-.27.14-.4.27-.67.54c-.94.81-1.62,1.62-2.29,2.56l-.54.81-.41.67-.27.81-.14.14s-.06.08-.1.11c-.01,0-.02.01-.03.02,0,.03-.03.05-.04.07-.03.03-.05.06-.08.09-.04.03-.09.05-.15.11l-.27.13c-.13.14-.27.27-.54.4-.27.27-.67.54-1.08.81l-2.29,1.48c-1.48.81-3.1,1.75-4.72,2.56-3.37,1.48-6.74,2.7-10.25,3.51-1.75.4-3.5.67-5.26.81-.94.07-1.85.1-2.75.1s-1.77-.03-2.65-.1c-1.75,0-3.51-.27-5.12-.67-.81-.13-1.48-.4-2.16-.81-.67-.27-1.35-.67-1.75-1.08l-.54-.54c-.13-.27-.27-.54-.27-.81-.14-.4-.27-1.08-.14-1.75l.14-.13v-.14c.27-.13.67-.13.94-.13,1.08-.14,2.16-.27,3.1-.54,2.02-.4,4.04-1.21,5.93-2.29.94-.54,1.89-1.21,2.7-1.89l1.21-1.08c.4-.54.81-.94,1.08-1.62.27-.4.4-.81.54-1.35,0-.13.13-.27.13-.54v-.54c-.13-.14-.13-.27-.13-.54-.14-.13-.14-.4-.27-.54,0-.13-.13-.4-.27-.54,0-.13-.13-.13-.13-.27-.14,0-.14-.13-.27-.13,0-.13-.13-.13-.13-.27q-.14,0-.27-.13c-.14,0-.27-.14-.27-.14-.54-.4-.94-.4-1.35-.54-.81-.14-1.48-.14-2.02-.14-.67,0-1.21.14-1.75.27-.27,0-.54.14-.81.14l-.67.27h-.4l-.4.14-.67.27c-.14,0-.27.13-.41.13l-.4.13-.67.27h-.14l-.27.13-.4.14c-.13.13-.4.27-.67.4l-.67.4c-.14,0-.27,0-.41.13l-.4.27-.27.14-.4.27-.67.54c-.94.81-1.62,1.62-2.29,2.56l-.54.81-.41.67-.27.81-.14.14c-.4.4-.81,1.08-.81,1.75v.94l-.13.14c0,.13,0,.27-.14.4v.54c-.27,1.08-.27,2.43.14,3.77.13.67.4,1.35.81,1.89.4.67.81,1.08,1.21,1.62.94.81,2.02,1.48,2.97,2.02,1.08.54,2.16.81,3.1,1.08,1.08.27,2.16.4,3.1.54,1.08.14,2.02.27,3.1.27,1.89,0,3.91-.13,5.93-.27,1.89-.27,3.91-.67,5.8-1.08,3.91-.81,7.55-2.16,11.19-3.77,1.75-.81,3.51-1.75,5.12-2.7.39-.23.76-.42,1.11-.62.05.34.13.68.23,1.02.13.67.4,1.35.81,1.89.4.67.81,1.08,1.21,1.62.94.81,2.02,1.48,2.97,2.02,1.08.54,2.16.81,3.1,1.08,1.08.27,2.16.4,3.1.54,1.08.14,2.02.27,3.1.27,1.89,0,3.91-.13,5.93-.27,1.89-.27,3.91-.67,5.8-1.08,3.91-.81,7.55-2.16,11.19-3.77,1.75-.81,3.51-1.75,5.12-2.7.48-.27.93-.51,1.35-.76-.47,3.1-.86,6.3-1.36,9.38l-2.7,20.49c-.54,3.5-1.08,6.88-1.48,10.24-.4,3.51-.94,6.87-1.35,10.38-.41,3.37-.81,6.87-1.21,10.24l-1.21,10.25-.27,2.56-.4,2.56-.54,5.26-.14,1.21-.13.67c0,.13,0,.4-.14.54v.67l-.13.41v.94c0,.13,0,.27.13.4,0,.14,0,.27.41.81.27.4.84.54,1.36.54s.99-.14,1.06-.27c.27-.27.4-.27.4-.4l.27-.27c.13-.13.13-.27.13-.4.14-.13.14-.27.14-.4l.13-.27c.27-.4.4-.81.54-1.21l.4-1.21.4-1.21c.13-.13.13-.27.27-.4v-.13c.67-.54.67-1.62.27-2.29-.27-.4-.81-.67-1.21-.81l.14-1.62.4-2.56.27-2.56.81-5.12.67-5.12,1.48-10.25,2.7-20.49c.54-3.5.94-6.87,1.48-10.24l1.75-10.24,1.62-10.24.81-4.99c.27-1.75.4-3.51.67-5.12.54-3.51,1.21-6.87,1.75-10.25.27-1.75.54-3.37.94-5.12l.4-2.56.54-2.43.4-2.56.27-1.35.27-1.21c.54,0,1.08,0,1.62-.13l6.2-.41ZM748.03,190.32l.4-.27.27-.27.27-.13.14-.14c.13,0,.27-.13.27-.13l.54-.27c.13-.13.4-.13.54-.27l.27-.13h.14l.13-.13.67-.14.27-.13q.13-.13.27-.13l.67-.14.54-.27.67-.13.54-.13c-.67.54-1.35,1.08-2.02,1.48-.67.4-1.35.67-2.16.94-.81.41-1.62.54-2.43.81-.14,0-.4,0-.54.13.14-.13.27-.4.54-.54ZM704.36,190.32l.4-.27.27-.27.27-.13.14-.14c.13,0,.27-.13.27-.13l.54-.27c.13-.13.4-.13.54-.27l.27-.13h.14l.13-.13.67-.14.27-.13q.13-.13.27-.13l.67-.14.54-.27.67-.13.54-.13c-.67.54-1.35,1.08-2.02,1.48-.67.4-1.35.67-2.16.94-.81.41-1.62.54-2.43.81-.14,0-.4,0-.54.13.14-.13.27-.4.54-.54Z"/>
        <path class="cls-1" d="M796.95,219.97c.54,1.35,1.62,2.56,3.77,2.56h1.08c2.02-.4,4.45-1.75,6.47-3.64,2.29-2.29,3.51-4.72,3.37-7.14v-.4l2.02-1.21c8.36-4.45,17.79-9.57,22.38-15.77.67-.81.54-2.16-.41-2.83-.31-.26-.71-.38-1.12-.38-.64,0-1.3.29-1.71.79-4.04,5.53-13.08,10.38-21.03,14.69-.4.27-.94.54-1.35.67l-1.89-3.51c-2.02-3.64-4.18-7.41-2.7-10.11.99-1.73,3-2.44,4.58-2.44.14,0,.28,0,.41.02.81.13,1.62.54,1.62.81.32.86,1.08,1.47,1.92,1.47.21,0,.43-.04.64-.12,1.08-.27,1.75-1.48,1.35-2.56-.67-1.89-2.56-3.24-5.12-3.51-.36-.05-.74-.07-1.12-.07-2.77,0-6,1.31-7.78,4.39-2.7,4.72.27,9.98,2.7,14.15l1.89,3.5c-2.16,1.21-4.04,2.29-5.66,3.37-1.35,1.08-5.26,3.77-4.31,7.28ZM804.23,215.66c.81-.54,1.75-1.21,2.83-1.75-.54.94-1.35,1.89-2.56,2.83-1.48,1.21-2.83,1.62-3.51,1.75.27-.4.94-1.35,3.23-2.83Z"/>
      </g>
    </g>
  </g>
</svg>