<?xml version="1.0" encoding="UTF-8"?>
<svg id="Layer_2" data-name="Layer 2" xmlns="http://www.w3.org/2000/svg" viewBox="0 0 421.91 488.43">
  <defs>
    <style>
      .cls-1 {
        fill: #e94057;
      }
    </style>
  </defs>
  <g id="Layer_1-2" data-name="Layer 1">
    <g>
      <path class="cls-1" d="M256.7,293.53c-.27.33-.56.68-.88,1.05l-1.55,2.27c-.16.3-.33.54-.48.74-.09.14-.19.26-.23.34-.23.47-.52.89-.75,1.22l-.13.19c-1.07,1.79-2.01,3.49-2.79,5.06-.09.18-.18.37-.27.55-1.05,10.12-2.26,20.32-1.92,30.44.07,2.24.56,4.04,1.39,5.39.25-1.13.49-2.26.73-3.38,1.78-8.42,3.31-16.41,4.55-23.76.65-3.81,1.33-7.85,1.77-11.82.2-1.74.43-3.76.54-5.73,0-.34.02-.68.03-1.01.02-.56.04-1.06-.01-1.55ZM295.56,286.79c0-1.11-.22-2.23-.44-3.34-.23-.56-.34-1.12-.56-1.78-.34-.56-.67-1.12-1.12-1.79l-1-.78c-.44-.22-.89-.44-1.33-.55-.45-.12-.9-.12-1.34-.12s-.78.12-1.12.23c-.44.11-.66.33-1,.44-.33.11-.56.34-.89.45l-1.34,1.11c-.89.78-1.67,1.56-2.34,2.34-1.45,1.67-2.56,3.46-3.67,5.24-1.12,1.78-2.12,3.56-3.12,5.35-.89,1.89-1.79,3.67-2.68,5.57l-1.22,2.89-.23.67-.33.78c-.22.45-.33.89-.56,1.45l-2,5.79c-.67,1.9-1.34,3.79-1.9,5.69-1.33,3.9-2.56,7.8-3.78,11.58l-4.66,14.68c.52-.24,1.06-.51,1.6-.82,1.13-.65,2.22-1.37,3.28-2.15l3.34-10.48c1.23-3.9,2.45-7.69,3.79-11.59.56-1.89,1.22-3.79,1.89-5.68.67-2.01,1.34-3.9,2.01-5.68.11-.56.33-1.01.56-1.45l.22-.67.33-.67,1.12-2.78c.89-1.79,1.67-3.57,2.56-5.35,1-1.78,1.89-3.46,3.01-5.13,1-1.67,2.11-3.23,3.34-4.68.67-.78,1.22-1.44,1.89-2,.34-.34.67-.56,1.01-.78.33-.22.66-.34.89-.45.11,0,.22-.11.33-.11h.22v.11q.12,0,.23.11c.11.23.33.45.44.78l.34,1.12c.22.89.33,1.78.44,2.78.11.9.11,1.9.11,2.79,0,2-.11,3.9-.33,5.9-.33,4.02-.89,7.92-1.56,11.93l-1.48,8.3c1.6-1.58,3.19-3.16,4.78-4.74l.49-2.9c.67-4.01,1.34-8.13,1.67-12.25.11-2.01.33-4.12.33-6.24,0-1-.11-2.12-.22-3.12ZM289.56,295.59c.22-1.97.32-3.78.32-5.68,0-.83,0-1.77-.09-2.56-.1-.9-.2-1.71-.39-2.48-.04.03-.08.07-.11.1l-.07.07-.07.06c-.49.41-.94.94-1.52,1.61l-.12.15c-1.16,1.36-2.22,2.84-3.16,4.41l-.02.04-.03.04c-.87,1.31-1.61,2.64-2.39,4.04l-.51.91c-.43.86-.84,1.74-1.24,2.59-.41.87-.82,1.76-1.27,2.65l-1.08,2.7-.03.08-.04.08-.27.54-.18.53-.04.14-.07.13c-.18.36-.32.64-.38.94l-.03.16-.06.15c-.65,1.75-1.32,3.63-1.99,5.65-.65,1.83-1.32,3.73-1.86,5.58v.04s-.03.04-.03.04c-1.19,3.47-2.39,7.14-3.77,11.55l-2.43,7.62c1.42-1.2,2.78-2.49,4.09-3.79,5.11-5.07,10.22-10.13,15.33-15.2l1.97-11.07c.77-4.65,1.25-8.28,1.54-11.76v-.06ZM401.1,68.49C369.58,20.15,308.96.81,255.13,21.97c-2.79,1.1-5.45,2.54-8.23,3.84,6.57,8.13,12.78,15.31,18.36,22.95,2.58,3.53,4.7,4.51,9.01,3.09,14.16-4.68,28.66-5.33,43.26-2.11,41.47,9.12,71.06,47.1,68.7,88.12-2.55,44.32-36.04,79.26-79.91,82.85-17.62,1.44-34.24-2.27-50.04-11.8,1.55-2.87,2.88-5.15,4.03-7.52,24.06-49.28,22.27-97.65-9.03-142.69C220.46,14.34,176.08-5.33,122.63,1.24,66.34,8.16,27.04,40.04,9.23,93.88c-18.07,54.67-5.03,103.9,36.63,143.81,45.92,43.99,93.11,86.67,139.82,129.83,2.82,2.6,6.12,4.96,9.62,6.47,1.8.78,3.47,1.1,4.94,1l2.21-13.98,2.55-15.79c-3.62-24.5-7.35-48.99-11.24-73.46-.9-5.71-.07-9.25,5.94-11.89,7.07-3.11,14.76-6.63,19.79-12.15,10.63-11.65,20.92-11.19,32.17-2.25,1.97,1.57,3.97,4.84,3.75,7.12-1.08,11.53-2.48,23.04-3.82,34.55.35-.44.77-.86,1.21-1.22.45-.55.96-1.01,1.52-1.38.18-.16.43-.36.79-.54l.06-.03c.1-.07.22-.13.34-.19.2-.12.4-.22.62-.29.12-.07.25-.12.39-.16.24-.11.49-.17.76-.2.17-.06.43-.12.73-.12h.78c.35,0,.63.06.86.14.14.02.26.05.35.08h.4l.51.34.18.12c.19.07.55.22.9.57l.34.34.21.21.15.15.22.22v.11l.04.07c.21.25.36.53.48.77.32.52.49,1.01.6,1.36.26.78.39,1.43.51,2.02l.02.1v.1c.07.61.1,1.2.13,1.77.03.55.05,1.07.11,1.57v.1s.01.1.01.1c0,.56-.03,1.12-.06,1.67-.03.51-.06,1-.06,1.45v.11c-.1,1.98-.3,3.83-.51,5.79l-.05.55v.03s-.01.04-.01.04c-.55,3.95-1.12,8.04-1.79,12.08v.03s-.01.03-.01.03c-.39,1.99-.76,4.02-1.11,5.99-.36,1.97-.73,4.02-1.13,6.08l-2.56,11.91c-.31,1.5-.63,2.99-.96,4.49h.01l5.11-16.1c.3-.91.59-1.83.89-2.76.93-2.88,1.88-5.86,2.9-8.82.57-1.93,1.25-3.87,1.91-5.73l2-5.79.02-.05.02-.04c.07-.19.13-.37.19-.53.11-.31.23-.65.4-1.01l.28-.66.2-.59.02-.07.03-.08,1.23-2.89.02-.04v-.03c.46-.96.92-1.89,1.37-2.83.44-.9.88-1.81,1.32-2.75l.03-.06.03-.06c1-1.78,2.03-3.61,3.17-5.43,1.14-1.82,2.31-3.7,3.86-5.48.73-.85,1.58-1.71,2.53-2.54l.02-.02.02-.02,1.34-1.11.29-.24.31-.1s.06-.04.09-.06c.18-.11.46-.27.81-.39.03-.02.06-.04.09-.05.21-.12.55-.3,1.01-.43.39-.13.95-.31,1.69-.31.5,0,1.13,0,1.82.18.66.16,1.24.45,1.75.7l.17.09.16.12,1,.78.26.2.18.27c.47.71.82,1.3,1.16,1.87l.12.18.07.21c.1.31.18.6.26.88.09.3.16.57.25.79l.07.17.04.18c.22,1.1.47,2.34.48,3.62.12,1.06.22,2.19.22,3.24,0,1.51-.1,3-.21,4.44-.04.64-.09,1.28-.12,1.91v.05c-.34,4.1-1,8.22-1.7,12.43l-.02.15c29.56-29.33,59.08-58.68,88.58-88.05,41.15-40.98,48.1-104.32,16.79-152.35ZM203.1,217.7c-43.67,35.08-107.64,28.29-143.55-15.23-35.53-43.07-29.94-107.07,12.4-143.29,42.74-36.57,102.15-29.52,132.74.08-19.42,25.58-28.31,54.59-25.43,86.75,1.7,18.9,7.44,36.6,18.63,53.39,9.76-8.88,16.51-19.05,20.65-30.86.75-2.15-.53-5.18-1.31-7.67-7.22-23.01-5.15-45.2,5.78-66.61,1.19-2.34,2.69-4.52,4.52-7.57,22.02,32.33,22.1,93.63-24.43,131.01ZM262.58,289.91c-.11-.56-.22-1.11-.44-1.78-.11-.34-.23-.67-.45-1.01-.11-.22-.22-.44-.33-.55l-.23-.34c-.11-.11-.22-.11-.22-.22l-.33-.33c-.11-.12-.23-.12-.45-.23l-.33-.22c-.23,0-.34-.11-.56-.11-.11,0-.22-.11-.45-.11h-.78c-.11,0-.22.11-.44.11-.11,0-.22,0-.33.11-.12,0-.23,0-.23.11-.22,0-.44.11-.56.22-.11,0-.22.12-.22.12l-.22.11c-.22.11-.34.22-.45.33-.55.34-1,.78-1.33,1.23-.45.33-.9.78-1.23,1.22-.61.71-1.22,1.42-1.84,2.22-.33,2.95-.66,5.9-.98,8.85.27-.46.54-.92.81-1.37.23-.34.56-.78.79-1.23.22-.45.55-.78.78-1.23l1.67-2.45c.67-.78,1.22-1.45,1.78-2.22l1-1.01c.34-.22.56-.56.89-.78.11,0,.11-.11.23-.11l.11-.11q0,.11.11.22c.11.34.11.78.22,1.12.11.89.11,1.89.11,2.78.11,1,0,1.9,0,2.9-.11,2-.33,4.01-.55,5.9-.45,4.01-1.12,8.03-1.79,11.93-1.33,7.91-2.89,15.93-4.56,23.84-.34,1.59-.69,3.19-1.04,4.79,1.04.76,2.3,1.14,3.72,1.14.37-1.72.74-3.43,1.1-5.15l2.57-11.92c.78-4.01,1.44-8.03,2.22-12.04.67-4.01,1.23-8.02,1.79-12.03.22-2.12.44-4.12.55-6.24,0-1,.12-2.12.12-3.12-.12-1.11-.12-2.23-.23-3.34ZM206.1,352.67c-.05-.31-.09-.61-.14-.92l-1.54,9.58-2.08,13.18c2.4-1.01,3.98-3.52,4.34-7.3.46-4.79.13-9.76-.58-14.54Z"/>
      <g>
        <path class="cls-1" d="M68.52,360.54c1-5.24,1.78-10.58,2.56-15.82.78-5.24,1.45-10.58,1.89-15.93.33-2.67.56-5.35.67-8.02.22-2.67.33-5.35.33-8.02s0-5.46-.33-8.13c-.11-1.45-.22-2.78-.45-4.12-.22-1.45-.56-2.78-1.11-4.23-.22-.67-.45-1.34-.89-2.12-.11-.11-.22-.33-.22-.45l-.33-.56-.45-.45-.22-.33c-.11,0-.11-.11-.22-.22l-.45-.45-.33-.22-.33-.22c-.33-.22-.78-.45-1.23-.67-.45-.11-1-.22-1.45-.22l-.33-.11h-.45c-.22,0-.45.11-.67.11-.89.11-1.67.33-2.34.67-.78.33-1.45.78-2.12,1.11-.22.22-.56.45-.89.67-.22.22-.56.45-.78.67l-.89.67c-.22.22-.45.45-.78.67-4.01,3.9-7.35,8.24-10.25,12.81-2.9,4.57-5.46,9.25-7.91,14.15-2.34,4.79-4.57,9.58-6.68,14.6-4.12,9.8-7.8,19.83-11.36,29.86-1.78,5.13-3.45,10.14-5.12,15.15-1.56,5.13-3.23,10.25-4.79,15.26-1.56,5.12-3.12,10.14-4.79,15.26-.45,1.45-.89,2.78-1.34,4.23v-.11l.11-.89.22-2.01c.22-1.23.45-2.56.56-3.9l.33-2.01.22-1.89.67-4.01,1.11-7.8,2.45-15.82,2.45-15.71,4.9-31.53,10.03-63.06c.11-.89-.56-1.78-1.45-2.01-.07,0-.13-.01-.2-.01-.82,0-1.6.63-1.81,1.46v.22l-.11.33c0,.22,0,.33-.11.56l-.33,1.23c-.11.45-.22.89-.45,1.23l-.22.67c0,.22-.11.33-.11.56v.11c-.11.45,0,.89.33,1.34-3.01,18.94-6.13,37.88-9.14,56.82-3.45,20.95-6.8,42-10.03,62.95-.45,2.67-.78,5.35-1.23,7.91l-.56,4.01-.33,1.89-.33,2c-.11,1.34-.33,2.67-.56,4.01l-.33,3.01c-.11.33-.11.67-.11,1l-.33,4.01c0,.67-.11,1.34-.11,2.12v1c0,.45,0,.78.11,1.23v.67c0,.11.11.22.11.33s0,.22.11.33c0,0,.11.22.11.33.11.11.11.22.33.45.11.22.45.45.89.67.26.13.56.18.83.18.19,0,.37-.03.51-.07l.78-.33c.11-.11.22-.22.33-.33l.22-.22c0-.11.11-.11.11-.22l.11-.11c.22-.22.33-.45.33-.67l.33-.45c.11-.45.33-.67.45-1,.56-1.34,1-2.67,1.45-3.9.89-2.56,1.67-5.12,2.45-7.58,1.67-5.12,3.23-10.25,4.79-15.26,1.67-5.12,3.23-10.14,4.9-15.15,1.56-5.12,3.23-10.14,5.01-15.15,3.45-10.03,7.13-19.94,11.25-29.75,2.01-4.79,4.12-9.69,6.46-14.37,2.34-4.68,4.9-9.36,7.69-13.81,1.45-2.12,2.9-4.35,4.46-6.35.45-.45.78-1,1.23-1.45l1.23-1.45c.89-1,1.78-1.89,2.67-2.79l.78-.67c.22-.11.45-.33.67-.56l.67-.56c.33-.11.56-.33.78-.45.45-.33,1-.67,1.45-.89.56-.22,1-.33,1.45-.45h.56c.22,0,.33.11.56.11.11.11.22.11.45.22q0,.11.11.11l.11.11.22.22.22.22v.11h.11l.11.22.22.22c0,.11.11.22.22.45l.67,1.45c.33,1.11.67,2.34.89,3.57.22,1.34.33,2.56.45,3.79.22,2.56.22,5.24.22,7.8s-.11,5.24-.33,7.91c-.11,2.67-.33,5.24-.67,7.91-.45,5.24-1.11,10.47-1.89,15.71-.78,5.24-1.56,10.47-2.56,15.71-.89,5.24-1.89,10.47-2.9,15.6l-1.67,7.8-.78,3.9-.45,2.01-.45,1.89c-1,5.35-2.01,10.58-2.78,15.82-.89,5.24-1.56,10.58-2.23,15.82-.67,5.35-1.23,10.7-1.67,15.93-.45,5.35-.89,10.7-1.11,16.04-.33,5.35-.45,10.7-.45,16.04.11,1.34.11,2.67.11,4.01.11,1.45.11,2.78.22,4.12.11,1.34.33,2.68.45,4.12.22,1.34.56,2.67.89,4.12.27.81.97,1.32,1.75,1.32.19,0,.39-.03.59-.1,1-.22,1.56-1.34,1.34-2.34-.33-1.11-.67-2.34-.78-3.57-.22-1.34-.33-2.56-.45-3.9-.11-1.23-.11-2.56-.22-3.9,0-1.34,0-2.56-.11-3.9,0-5.24.22-10.58.45-15.82.56-10.58,1.67-21.17,3.01-31.64,1.23-10.47,2.9-21.06,4.9-31.42l.33-1.89.45-2.01.89-3.9c.56-2.56,1-5.12,1.56-7.8,1-5.24,2.01-10.47,2.9-15.71Z"/>
        <path class="cls-1" d="M128.79,407c.67-.22,1.23-.56,1.78-.89.56-.22,1.11-.56,1.56-.89,1-.67,2.01-1.45,2.9-2.23.04-.03.08-.07.12-.11.13.41.34.81.66,1.22.11.33.33.56.56.78l.89.56c.56.33,1.11.45,1.67.56.22.06.47.08.72.08s.5-.03.72-.08c.56,0,1-.11,1.45-.22.22-.11.45-.11.67-.22.22-.11.45-.11.67-.22.89-.45,1.56-.89,2.23-1.45.22-.11.33-.22.45-.33.22-.11.33-.33.56-.45.22-.22.56-.56.89-.78.45-.45.78-.89,1.23-1.34l.33,1.34c.22.56.56,1.11,1,1.67.22.22.56.45.89.56.11.11.22.22.33.22l.11.11q.11,0,.22.11c.45.11.89.33,1.34.33.89.22,1.78.33,2.67.33.78,0,1.56-.11,2.34-.22,1.67-.11,3.12-.56,4.68-.89,1.45-.45,2.9-.89,4.34-1.56,1.45-.56,2.79-1.11,4.12-1.89.78-.33,1.45-.67,2.12-1.11.33-.22.67-.45.89-.67.33-.11.67-.33,1-.56l.11-.11c.89-.67,1-1.89.34-2.78-.38-.51-.95-.76-1.5-.76-.42,0-.83.14-1.17.43h-.11c-1,.78-2.23,1.56-3.45,2.23-1.23.67-2.45,1.34-3.79,1.89-1.23.56-2.56,1-3.9,1.34-1.34.45-2.67.67-4.01.89-.67,0-1.34.11-2.01.11s-1.23-.11-1.78-.22l-.11-.11h-.22c-.11,0-.11-.11-.11-.11h-.11l-.11-.11h-.22l-.11-.11s0-.11-.11-.34c0-.11-.11-.33-.11-.67v-1.67l.33-2c.22-.67.33-1.34.56-2.01l.11-.56.11-.33v-.33l.11-.11v-.56s.03.03.05.03c.14,0-.59-1.73-2.07-1.73-.23,0-.49.04-.76.14-.78.33-.67.45-.78.56l-.11.11-.11.11v.11q-.11.11-.11.22c-.11.11-.11.22-.11.22l-.22.33v.11l-.22.33c-.22-.56-.78-.89-1.45-1-.78-.11-1.56-.22-2.45-.22-.78,0-1.67.11-2.56.22-.89.22-1.78.45-2.56.78l-.33.22-.33.11c-.11.11-.33.22-.56.45-.33.22-.78.45-1.11.78-.15.15-.29.3-.43.45-.17.12-.33.27-.46.44l-.22.33c-.11,0-.11.11-.22.22-.11.22-.33.33-.56.56-.33.45-.67.78-1.11,1.11-.33.45-.67.78-1.11,1.11-.45.45-.78.78-1.23,1.11-.78.67-1.67,1.34-2.56,2.01-.33.33-.78.56-1.23.89-.45.22-.89.45-1.23.67-.11,0-.22,0-.33.11h-.67c0-.11-.11-.11-.11-.11,0-.11-.11-.11-.11-.22q-.11-.11-.11-.22l-.11-.11v-.45c-.11-.11-.11-.22-.11-.45-.11-.22-.11-.56-.22-.89-.11-.67-.33-1.23-.56-1.89-.22-.56-.56-1.23-1-1.89-.33-.56-.89-1.23-1.56-1.67-.67-.56-1.56-.89-2.34-1-.22-.11-.45-.11-.67-.11h-1.56c-.11.11-.22.11-.33.11-.45.11-.89.33-1.23.56-.45.11-.67.33-1,.56-.56.45-1,1-1.45,1.45-.45.45-.89.89-1.23,1.34-.67,1-1.34,1.89-2.01,2.79l-1,1.11-.11.11h-.11q0,.11-.11.11t-.11.11l-.45.33h-.11v-.33c0-.45.11-1,.11-1.56l.67-3.12c.11-.56.22-1,.45-1.45.11-.22.11-.45.22-.67.11-.22.22-.45.22-.56.11,0,.11-.11.11-.11.56-1,.22-2.12-.78-2.67-.33-.18-.67-.27-.99-.27-.68,0-1.31.37-1.68,1.05-.22.45-.33.78-.45,1.11l-.33.89s0,0,0,0c-1,.78-2.22,1.56-3.45,2.22-1.23.67-2.45,1.34-3.79,1.89-1.23.56-2.56,1-3.9,1.34-1.34.45-2.67.67-4.01.89-.67,0-1.34.11-2.01.11s-1.23-.11-1.78-.22l-.11-.11h-.22c-.11,0-.11-.11-.11-.11h-.11l-.11-.11h-.22l-.11-.11s0-.11-.11-.34c0-.11-.11-.33-.11-.67v-1.67l.33-2c.22-.67.33-1.34.56-2.01l.11-.56.11-.33v-.33l.11-.11v-.56s.04.03.05.03c.14,0-.59-1.73-2.07-1.73-.23,0-.49.04-.76.14-.78.33-.67.45-.78.56l-.11.11-.11.11v.11q-.11.11-.11.22c-.11.11-.11.22-.11.22l-.22.33v.11l-.22.33c-.22-.56-.78-.89-1.45-1-.78-.11-1.56-.22-2.45-.22-.78,0-1.67.11-2.56.22-.89.22-1.78.45-2.56.78l-.33.22-.33.11c-.11.11-.33.22-.56.45-.33.22-.78.45-1.11.78-.67.67-1.23,1.34-1.67,2.23-.33.34-.45.78-.67,1.23-.11.22-.22.45-.22.67q0,.11-.11.22v.11l-.11.33c0,.45-.11.89-.11,1.45,0,.45,0,1,.11,1.56.11.56.33,1.11.78,1.67.11.33.33.56.56.78l.89.56c.56.33,1.11.45,1.67.56.22.06.47.08.72.08s.5-.03.72-.08c.56,0,1-.11,1.45-.22.22-.11.45-.11.67-.22.22-.11.45-.11.67-.22.89-.45,1.56-.89,2.23-1.45.22-.11.33-.22.45-.33.22-.11.33-.33.56-.45.22-.22.56-.56.89-.78.45-.45.78-.89,1.23-1.34l.33,1.34c.22.56.56,1.11,1,1.67.22.22.56.45.89.56.11.11.22.22.33.22l.11.11q.11,0,.22.11c.45.11.89.33,1.34.33.89.22,1.78.33,2.67.33.78,0,1.56-.11,2.34-.22,1.67-.11,3.12-.56,4.68-.89,1.45-.45,2.9-.89,4.34-1.56,1.45-.56,2.79-1.11,4.12-1.89.2-.09.37-.18.56-.26,0,.01,0,.03,0,.04,0,.56-.11,1.23-.11,1.78v2.01c0,.22,0,.45.11.78,0,.11.11.11.11.22s.11.11.11.22c0,0,0,.11.11.22q.11.11.11.22.11,0,.11.11c.11,0,.11.11.11.11q.11,0,.11.11h.11l.11.11s.11,0,.11.11h.22l.11.11h.22s0,.11.11.11h1.23c.45,0,.89-.11,1.23-.22.33-.11.67-.22,1-.45.33-.11.67-.33,1-.56.11-.11.22-.11.22-.22.11,0,.22-.11.22-.11l.22-.22.22-.11.33-.45c.11-.11.22-.22.33-.33l.67-.67c.78-.89,1.45-1.78,2.23-2.56.33-.45.67-.89,1-1.23.33-.33.67-.67,1-.89l.45-.33c.11,0,.22-.11.33-.11h1c.11,0,.11.11.22.11s.22.11.33.22c.22.11.45.33.67.67.45.67.89,1.56,1.11,2.45.11.22.11.56.11.78.11.11.11.22.11.45.11.11.11.33.11.56l.11.22c0,.11.11.22.11.33.11.11.11.33.22.56.22.33.45.78.89,1.11.33.33.67.67,1.23.89.45.22.89.33,1.34.45h1.11c.11-.11.22-.11.33-.11h.11l.22-.11h.22c.22-.11.45-.11.56-.22ZM138.81,400.99v-.56s0-.11.11-.22v-.33l.22-.33c0-.22.22-.45.33-.67.22-.56.56-.89,1-1.34.22-.11.45-.33.67-.45l.33-.22.11-.11.22-.11c.56-.22,1-.33,1.67-.45.56-.11,1.11-.22,1.78-.22.56,0,1.23.11,1.89.11v.11h.22c0,.11-.11.11-.22.22-.78,1.11-1.67,2.23-2.67,3.23-.45.45-.89.89-1.45,1.23-.45.45-1,.78-1.45,1-.11.11-.22.11-.33.11-.22.11-.33.11-.45.22-.22,0-.45.11-.67.11h-.67c-.22-.11-.33-.11-.45-.22q-.11,0-.11-.11c-.11-.11-.11-.22-.11-.33-.11-.22-.11-.33,0-.67ZM80.88,396.42c-.78,1.11-1.67,2.23-2.67,3.23-.45.45-.89.89-1.45,1.23-.45.45-1,.78-1.45,1-.11.11-.22.11-.33.11-.22.11-.33.11-.45.22-.22,0-.45.11-.67.11h-.67c-.22-.11-.33-.11-.45-.22q-.11,0-.11-.11c-.11-.11-.11-.22-.11-.33-.11-.22-.11-.33,0-.67v-.56s0-.11.11-.22v-.33l.22-.33c0-.22.22-.45.33-.67.22-.56.56-.89,1-1.34.22-.11.45-.33.67-.45l.33-.22.11-.11.22-.11c.56-.22,1-.33,1.67-.45.56-.11,1.11-.22,1.78-.22.56,0,1.23.11,1.89.11v.11h.22c0,.11-.11.11-.22.22Z"/>
        <g>
          <path class="cls-1" d="M277.18,484.99l-.05-.91c.02.23.13.4.23.5l1.42-1.41,1.79,1.81h-3.39Z"/>
          <path class="cls-1" d="M278.07,483.88l.11.11c-.11,0,0,0-.11-.11M279.49,482.47l-2.84,2.81c-.33-.33-.52-.82-.52-1.31,0,.99.77,2.01,2.06,2.01h4.79l-3.37-3.41-.11-.11h0Z"/>
        </g>
        <path class="cls-1" d="M291.78,320.32l2-11.92c.67-4.01,1.34-8.13,1.67-12.26.11-2.01.33-4.12.33-6.24,0-1-.11-2.12-.22-3.12,0-1.11-.22-2.23-.45-3.34-.22-.56-.33-1.11-.56-1.78-.33-.56-.67-1.11-1.11-1.78l-1-.78c-.45-.22-.89-.45-1.34-.56-.45-.11-.89-.11-1.34-.11s-.78.11-1.11.22c-.45.11-.67.33-1,.45-.33.11-.56.33-.89.45l-1.34,1.11c-.89.78-1.67,1.56-2.34,2.34-1.45,1.67-2.56,3.45-3.68,5.24-1.11,1.78-2.12,3.57-3.12,5.35-.89,1.89-1.78,3.68-2.67,5.57l-1.23,2.9-.22.67-.33.78c-.22.45-.33.89-.56,1.45l-2.01,5.79c-.67,1.89-1.34,3.79-1.89,5.68-1.34,3.9-2.56,7.8-3.79,11.59l-7.35,23.17c-2.45,7.69-4.9,15.49-7.46,23.17-1.11,3.68-2.34,7.35-3.57,11.03.78-3.68,1.67-7.46,2.45-11.25l2.67-11.81c1.78-7.91,3.57-15.82,5.24-23.73l2.56-11.92c.78-4.01,1.45-8.02,2.23-12.03.67-4.01,1.23-8.02,1.78-12.03.22-2.12.45-4.12.56-6.24,0-1,.11-2.12.11-3.12-.11-1.11-.11-2.23-.22-3.34-.11-.56-.22-1.11-.45-1.78-.11-.33-.22-.67-.45-1-.11-.22-.22-.45-.33-.56l-.22-.33c-.11-.11-.22-.11-.22-.22l-.33-.33c-.11-.11-.22-.11-.45-.22l-.33-.22c-.22,0-.33-.11-.56-.11-.11,0-.22-.11-.45-.11h-.78c-.11,0-.22.11-.45.11-.11,0-.22,0-.33.11-.11,0-.22,0-.22.11-.22,0-.45.11-.56.22-.11,0-.22.11-.22.11l-.22.11c-.22.11-.33.22-.45.33-.56.33-1,.78-1.34,1.23-.45.33-.89.78-1.23,1.23-.67.78-1.34,1.56-2.01,2.45-.56.89-1.23,1.67-1.78,2.56-.22.45-.56.89-.78,1.34l-.89,1.34c-1.11,1.78-2.01,3.57-3.01,5.35-1.89,3.68-3.57,7.46-5.24,11.14l-4.68,11.25c-3.01,7.58-5.79,15.15-8.58,22.84-5.46,15.26-10.7,30.53-16.04,45.79-1.34,3.9-2.67,7.69-4.12,11.48-1.34,3.79-2.79,7.58-4.35,11.25-.33.89-.78,1.78-1.11,2.78-.22.33-.45.78-.56,1.11v-.56c0-1,.11-2.01.22-2.9v-.78l.11-.34v-.45l.22-1.45.11-1.45.22-1.56c1.11-7.91,2.45-15.93,3.56-23.95l3.79-23.95c5.01-32.09,10.03-64.06,15.15-96.04.11-.89-.45-1.78-1.45-2.01-.07,0-.13-.01-.2-.01-.82,0-1.59.64-1.7,1.46v.22l-.11.11v.22c0,.22-.11.45-.11.56l-.22.56c0,.22,0,.45-.11.56-.22.78-.45,1.56-.78,2.23l-.45,1.11-.22.56s-.11.11-.11.22l-.11.22-.33.56-.22.45-.22.33-.11.22-.33.45v.11c-.33.67-.11,1.56.45,2.01.25.25.56.38.89.38.11,0,.22-.01.33-.04l-13.7,85.01-3.79,23.95c-1.23,8.02-2.45,16.04-3.57,24.06l-.22,1.45-.45,3.12v.33l-.11.45v.78c-.11,1-.22,2.01-.22,3.01-.11,1.11-.11,2.12,0,3.23v.89c0,.33.11.67.11,1q.11.11.11.22c0,.11.11.22.11.33l.45.78c.11.22.22.33.45.56.22.22.56.33.89.45.22.06.42.08.6.08s.35-.03.52-.08c.22,0,.45-.11.67-.22.33-.22.45-.34.67-.56.11,0,.11-.11.22-.22.11,0,.11-.11.22-.22.22-.22.33-.45.56-.78.33-.45.56-.89.89-1.45l1.34-2.79c.45-1,.89-1.89,1.23-2.9,1.56-3.79,3.01-7.58,4.46-11.37,1.34-3.79,2.78-7.69,4.12-11.47l8.02-22.95c2.67-7.58,5.35-15.26,8.13-22.84,2.67-7.58,5.57-15.15,8.58-22.62,1.45-3.79,3.01-7.46,4.57-11.14,1.67-3.79,3.34-7.35,5.12-10.92.89-1.78,1.89-3.57,2.9-5.24.22-.33.56-.78.78-1.23.22-.45.56-.78.78-1.23l1.67-2.45c.67-.78,1.23-1.45,1.78-2.23l1-1c.33-.22.56-.56.89-.78.11,0,.11-.11.22-.11l.11-.11q0,.11.11.22c.11.33.11.78.22,1.11.11.89.11,1.89.11,2.79.11,1,0,1.89,0,2.9-.11,2-.33,4.01-.56,5.9-.45,4.01-1.11,8.02-1.78,11.92-1.34,7.91-2.9,15.93-4.57,23.84-1.67,7.8-3.45,15.71-5.24,23.62l-2.68,11.92c-.89,3.9-1.78,7.8-2.56,11.81l-1.34,6.02c-.45,1.89-.78,3.9-1.11,6.02-.22,1-.45,2-.56,3.01-.11.56-.11,1.11-.22,1.67v1.23c0,.11,0,.22.11.33,0,.22,0,.45.22.89,0,.34,1.14.96,1.96.96.24,0,.45-.05.6-.18.56-.22.67-.45.78-.56.22-.11.22-.22.33-.33.11-.22.22-.33.34-.45l.33-.78c.33-.56.45-1,.67-1.56.45-.89.78-1.89,1.11-2.9.78-1.89,1.45-3.79,2.12-5.68l2.01-5.79c1.23-3.9,2.45-7.69,3.79-11.59,2.45-7.69,4.9-15.37,7.35-23.17l7.35-23.06c1.23-3.9,2.45-7.69,3.79-11.59.56-1.89,1.23-3.79,1.89-5.68.67-2.01,1.34-3.9,2.01-5.68.11-.56.33-1,.56-1.45l.22-.67.33-.67,1.11-2.78c.89-1.78,1.67-3.57,2.56-5.35,1-1.78,1.89-3.45,3.01-5.12,1-1.67,2.12-3.23,3.34-4.68.67-.78,1.23-1.45,1.89-2.01.33-.33.67-.56,1-.78.33-.22.67-.33.89-.45.11,0,.22-.11.33-.11h.22v.11q.11,0,.22.11c.11.22.33.45.45.78l.33,1.11c.22.89.33,1.78.45,2.78.11.89.11,1.89.11,2.78,0,2.01-.11,3.9-.33,5.91-.33,4.01-.89,7.91-1.56,11.92l-2.12,11.92-4.12,23.95-8.02,47.91c-1.23,8.02-2.56,16.04-3.68,24.07-1.23,8.02-2.34,16.04-3.45,24.06l-.67,6.02c-.22,2.12-.56,4.12-.67,6.13-.22,2.01-.45,4.01-.56,6.13-.22,2.01-.33,4.01-.33,6.13v1.67l.11.33v1.23c.11.22.11.56.11.78l.11.78c0,.22,0,.56.11.78l.11.78c.11,1,.33,2.12.56,3.12l.22.78.11.45v.33l.22.78.33.78c.67,2.01,1.56,4.01,2.78,5.91l.11.22.11.11.22.33c.22.33.33.56.56.78l1.23,1.23c.33.45.89.78,1.34,1.11.22.22.56.33.78.56l.22.11c.11,0,.22,0,.22.11.11,0,.22.11.22.11.11,0,.22,0,.45.11l1.45-3.45h-.11v-.11c-.11,0-.11-.11-.22-.11,0-.11-.11-.11-.11-.11l-.56-.67-.11-.22s-.11-.11-.11-.22l-.11-.11-.11-.22c0-.11-.11-.22-.11-.45l-.22-.33v-.22c-.37-.74-1.05-1.17-1.84-1.17-.16,0-.33.02-.5.06-.78-1.34-1.45-2.9-2.01-4.57l-.45-1.34c0-.11,0-.22-.11-.33v-.33l-.22-.67-.56-2.9-.11-.67v-.78l-.11-.67c0-.33,0-.56-.11-.78v-1.11l-.11-.33v-1.45c0-1.89.11-3.9.33-5.91.11-2.01.33-4.01.56-6.02l.67-6.02c.22-1.89.45-3.9.78-5.91,1-8.02,2.23-16.04,3.45-24.07,1.23-8.02,2.45-15.93,3.79-23.95,2.56-15.93,5.24-31.98,7.91-47.91l4.12-23.95Z"/>
        <path class="cls-1" d="M419.22,368.68h1.11c.06,0,.11.01.17.01.72,0,1.39-.63,1.39-1.46.11-.78-.56-1.56-1.34-1.67h-.56c-.78,0-1.45-.11-2.12-.11h-7.8c-3.45,0-6.91.11-10.36.22-3.34.11-6.8.45-10.25.56-1.67.11-3.34.22-5.13.22l-5.12.33c-.78,0-1.67,0-2.56.11l-2.56.11c0,.11-.11.11-.22.11l.11-.11c.22-1.45.56-2.78.78-4.23l.45-2.12c.11-.67.22-1.34.33-2.01l1-4.12.56-2.12.33-1c0-.34.11-.67.22-1l.67-2.01.11-.56.11-.45.67-2.01c.11-.22.11-.33.11-.56l.22-.45.67-1.89.11-.11c.33-1-.22-2.12-1.23-2.45-.24-.11-.48-.16-.72-.16-.77,0-1.47.51-1.73,1.27l-.78,2.12-.11.45c-.11.22-.11.45-.22.56l-.33,1-.22,1.11-.22.56-.11.45-.56,2.12c-.22.67-.45,1.45-.56,2.12l-.56,2.12c-.11.67-.33,1.34-.45,2.12-.22.67-.34,1.34-.56,2.01l-1,4.23c-.33,1.34-.67,2.78-.89,4.23l-.22,1.23c-.33,0-.56,0-.89.11l-10.25.78c-.78,0-1.67.11-2.56.11-.78.11-1.67.11-2.45.22-1.78.11-3.45.45-5.12.56-.89.11-1.78.11-2.56.22-.89,0-1.78.11-2.56.11-1.78.22-3.45.33-5.13.45-1.11.11-1.89,1-1.78,2.12.1,1.04.89,1.79,1.91,1.79.07,0,.14,0,.21-.01l5.12-.56c.78,0,1.67-.11,2.56-.22.78-.11,1.67-.22,2.45-.22,1.78-.11,3.45-.11,5.12-.33.89,0,1.78-.11,2.56-.22.89-.11,1.78-.11,2.56-.22l5.13-.45,4.9-.33-.67,3.23-.67,4.23c-.34,1.45-.56,2.78-.78,4.23l-.78,4.23-.67,4.23-.45,2.12-.11,1-.16.78c-.06.04-.12.06-.17.11,0,.11-.11.11-.22.22l-.22.11c-.11.11-.22.22-.45.33-.22.22-.56.45-.89.67l-1.89,1.23c-1.23.67-2.56,1.45-3.9,2.12-2.78,1.23-5.57,2.23-8.47,2.9-1.45.33-2.9.56-4.34.67-.78.06-1.53.08-2.27.08s-1.46-.03-2.19-.08c-1.45,0-2.9-.22-4.23-.56-.67-.11-1.23-.33-1.78-.67-.56-.22-1.11-.56-1.45-.89l-.45-.45c-.11-.22-.22-.45-.22-.67-.11-.33-.22-.89-.11-1.45l.11-.11v-.11c.22-.11.56-.11.78-.11.89-.11,1.78-.22,2.56-.45,1.67-.33,3.34-1,4.9-1.89.78-.45,1.56-1,2.23-1.56l1-.89c.33-.45.67-.78.89-1.34.22-.33.33-.67.45-1.11,0-.11.11-.22.11-.45v-.45c-.11-.11-.11-.22-.11-.45-.11-.11-.11-.33-.22-.45,0-.11-.11-.33-.22-.45,0-.11-.11-.11-.11-.22-.11,0-.11-.11-.22-.11,0-.11-.11-.11-.11-.22q-.11,0-.22-.11c-.11,0-.22-.11-.22-.11-.45-.33-.78-.33-1.11-.45-.67-.11-1.23-.11-1.67-.11-.56,0-1,.11-1.45.22-.22,0-.45.11-.67.11l-.56.22h-.33l-.33.11-.56.22c-.11,0-.22.11-.34.11l-.33.11-.56.22h-.11l-.22.11-.33.11c-.11.11-.33.22-.56.33l-.56.33c-.11,0-.22,0-.34.11l-.33.22-.22.11-.33.22-.56.45c-.78.67-1.34,1.34-1.89,2.12l-.45.67-.34.56-.22.67-.11.11s-.05.06-.08.09c0,0-.02.01-.03.02,0,.03-.02.04-.04.06-.02.03-.04.05-.07.08-.04.02-.08.04-.12.09l-.22.11c-.11.11-.22.22-.45.33-.22.22-.56.45-.89.67l-1.89,1.23c-1.23.67-2.56,1.45-3.9,2.12-2.78,1.23-5.57,2.23-8.47,2.9-1.45.33-2.9.56-4.34.67-.78.06-1.53.08-2.27.08s-1.46-.03-2.19-.08c-1.45,0-2.9-.22-4.23-.56-.67-.11-1.23-.33-1.78-.67-.56-.22-1.11-.56-1.45-.89l-.45-.45c-.11-.22-.22-.45-.22-.67-.11-.33-.22-.89-.11-1.45l.11-.11v-.11c.22-.11.56-.11.78-.11.89-.11,1.78-.22,2.56-.45,1.67-.33,3.34-1,4.9-1.89.78-.45,1.56-1,2.23-1.56l1-.89c.33-.45.67-.78.89-1.34.22-.33.33-.67.45-1.11,0-.11.11-.22.11-.45v-.45c-.11-.11-.11-.22-.11-.45-.11-.11-.11-.33-.22-.45,0-.11-.11-.33-.22-.45,0-.11-.11-.11-.11-.22-.11,0-.11-.11-.22-.11,0-.11-.11-.11-.11-.22q-.11,0-.22-.11c-.11,0-.22-.11-.22-.11-.45-.33-.78-.33-1.11-.45-.67-.11-1.23-.11-1.67-.11-.56,0-1,.11-1.45.22-.22,0-.45.11-.67.11l-.56.22h-.33l-.33.11-.56.22c-.11,0-.22.11-.34.11l-.33.11-.56.22h-.11l-.22.11-.33.11c-.11.11-.33.22-.56.33l-.56.33c-.11,0-.22,0-.34.11l-.33.22-.22.11-.33.22-.56.45c-.78.67-1.34,1.34-1.89,2.12l-.45.67-.34.56-.22.67-.11.11c-.33.33-.67.89-.67,1.45v.78l-.11.11c0,.11,0,.22-.11.33v.45c-.22.89-.22,2.01.11,3.12.11.56.33,1.11.67,1.56.33.56.67.89,1,1.34.78.67,1.67,1.23,2.45,1.67.89.45,1.78.67,2.56.89.89.22,1.78.33,2.56.45.89.11,1.67.22,2.56.22,1.56,0,3.23-.11,4.9-.22,1.56-.22,3.23-.56,4.79-.89,3.23-.67,6.24-1.78,9.25-3.12,1.45-.67,2.9-1.45,4.23-2.23.33-.19.62-.35.92-.51.04.28.11.56.19.85.11.56.33,1.11.67,1.56.33.56.67.89,1,1.34.78.67,1.67,1.23,2.45,1.67.89.45,1.78.67,2.56.89.89.22,1.78.33,2.56.45.89.11,1.67.22,2.56.22,1.56,0,3.23-.11,4.9-.22,1.56-.22,3.23-.56,4.79-.89,3.23-.67,6.24-1.78,9.25-3.12,1.45-.67,2.9-1.45,4.23-2.23.4-.23.76-.43,1.12-.62-.39,2.57-.71,5.2-1.12,7.75l-2.23,16.93c-.45,2.9-.89,5.68-1.23,8.47-.33,2.9-.78,5.68-1.11,8.58-.34,2.78-.67,5.68-1,8.47l-1,8.47-.22,2.12-.33,2.12-.45,4.35-.11,1-.11.56c0,.11,0,.33-.11.45v.56l-.11.34v.78c0,.11,0,.22.11.33,0,.11,0,.22.34.67.22.33.7.45,1.13.45s.82-.11.88-.22c.22-.22.33-.22.33-.33l.22-.22c.11-.11.11-.22.11-.33.11-.11.11-.22.11-.33l.11-.22c.22-.33.33-.67.45-1l.33-1,.33-1c.11-.11.11-.22.22-.33v-.11c.56-.45.56-1.34.22-1.89-.22-.33-.67-.56-1-.67l.11-1.34.33-2.12.22-2.12.67-4.23.56-4.23,1.23-8.47,2.23-16.93c.45-2.9.78-5.68,1.23-8.47l1.45-8.47,1.34-8.47.67-4.12c.22-1.45.33-2.9.56-4.23.45-2.9,1-5.68,1.45-8.47.22-1.45.45-2.78.78-4.23l.33-2.12.45-2.01.33-2.12.22-1.11.22-1c.45,0,.89,0,1.34-.11l5.12-.34,7.58-.67c.89-.11,1.78-.11,2.56-.22,3.45-.22,6.8-.33,10.25-.56,3.45-.11,6.8-.34,10.25-.45,1.23-.11,2.56-.11,3.9-.22,0,.22.11.45.22.67.32.38.78.58,1.24.58.35,0,.7-.12.99-.36l.67-.45c.33-.11.67-.11.89-.22.33,0,.78-.11,1.11-.11ZM334.1,394.19l.33-.22.22-.22.22-.11.11-.11c.11,0,.22-.11.22-.11l.45-.22c.11-.11.33-.11.45-.22l.22-.11h.11l.11-.11.56-.11.22-.11q.11-.11.22-.11l.56-.11.45-.22.56-.11.45-.11c-.56.45-1.11.89-1.67,1.23-.56.33-1.11.56-1.78.78-.67.34-1.34.45-2,.67-.11,0-.33,0-.45.11.11-.11.22-.33.45-.45ZM298.01,394.19l.33-.22.22-.22.22-.11.11-.11c.11,0,.22-.11.22-.11l.45-.22c.11-.11.33-.11.45-.22l.22-.11h.11l.11-.11.56-.11.22-.11q.11-.11.22-.11l.56-.11.45-.22.56-.11.45-.11c-.56.45-1.11.89-1.67,1.23-.56.33-1.11.56-1.78.78-.67.34-1.34.45-2,.67-.11,0-.33,0-.45.11.11-.11.22-.33.45-.45Z"/>
        <path class="cls-1" d="M374.54,418.7c.45,1.11,1.34,2.12,3.12,2.12h.89c1.67-.33,3.68-1.45,5.35-3.01,1.89-1.89,2.9-3.9,2.79-5.91v-.33l1.67-1c6.91-3.68,14.71-7.91,18.5-13.04.56-.67.45-1.78-.34-2.34-.26-.22-.59-.32-.92-.32-.53,0-1.07.24-1.41.65-3.34,4.57-10.81,8.58-17.38,12.14-.33.22-.78.45-1.11.56l-1.56-2.9c-1.67-3.01-3.45-6.13-2.23-8.36.82-1.43,2.48-2.02,3.79-2.02.12,0,.23,0,.34.01.67.11,1.34.45,1.34.67.27.71.89,1.21,1.59,1.21.17,0,.35-.03.53-.1.89-.22,1.45-1.23,1.11-2.12-.56-1.56-2.12-2.67-4.23-2.9-.3-.04-.61-.06-.93-.06-2.29,0-4.96,1.08-6.43,3.63-2.23,3.9.22,8.24,2.23,11.7l1.56,2.9c-1.78,1-3.34,1.89-4.68,2.79-1.11.89-4.35,3.12-3.57,6.02ZM380.56,415.14c.67-.45,1.45-1,2.34-1.45-.45.78-1.11,1.56-2.12,2.34-1.23,1-2.34,1.34-2.9,1.45.22-.33.78-1.11,2.67-2.34Z"/>
      </g>
    </g>
  </g>
</svg>