<?xml version="1.0" encoding="UTF-8"?>
<svg id="Layer_1" data-name="Layer 1" xmlns="http://www.w3.org/2000/svg" viewBox="0 0 512 512">
  <defs>
    <style>
      .cls-1 {
        stroke-width: 0px;
      }
    </style>
  </defs>
  <path class="cls-1" d="M299.29,355.41c-.12,5.66-4.36,6.87-8.53,8.64-14.95,6.36-30.62,11.6-44.5,19.82-43.93,26.02-73.17,64.07-88.41,112.89-.91,2.91-2.99,6.17-5.49,7.71-4.49,2.77-8.99-.56-11.06-7.52-7.62-25.54-19.87-48.63-36.86-69.15-25.29-30.54-56.89-51.74-94.75-63.57-1.17-.37-2.35-.71-3.52-1.08-3.68-1.17-6.14-3.38-6.18-7.51-.04-4.11,2.29-6.4,6-7.63,5.65-1.88,11.39-3.55,16.89-5.79,59.23-24.03,98.57-66.57,118.26-127.34.22-.67.41-1.34.6-2.01,1.14-4.09,3.36-6.97,8.05-6.87,4.4.09,6.41,2.85,7.66,6.7,1.99,6.17,3.86,12.41,6.36,18.37,24.37,57.91,66.44,96.62,126.27,115.93,4.45,1.44,8.94,2.6,9.21,8.41Z"/>
  <path class="cls-1" d="M425.49,106.78c-3,1.99-4.94,3.95-7.27,4.7-14.48,4.65-27.97,11.19-40.17,20.29-22.45,16.74-38.2,38.37-47.15,64.92-.5,1.49-.55,3.31-1.46,4.46-1.4,1.76-3.34,4.2-5.11,4.24-1.71.04-3.94-2.28-5.11-4.1-1.28-1.99-1.52-4.63-2.39-6.92-15.3-40.55-43.22-68.14-84.41-82.08-.83-.28-1.85-.35-2.45-.89-1.91-1.73-3.67-3.63-5.49-5.46,1.83-1.8,3.36-4.56,5.55-5.26,26.27-8.46,48.25-23.1,65.5-44.7,9.83-12.31,17.19-25.98,22.07-40.97.43-1.33.56-2.94,1.4-3.93,1.55-1.83,3.58-4.61,5.33-4.54,1.83.07,4.53,2.69,5.18,4.73,4.53,14.34,10.89,27.71,19.76,39.85,17.09,23.4,39.43,39.58,66.97,48.58,1.5.49,3.23.68,4.42,1.58,1.52,1.15,2.6,2.89,4.83,5.49Z"/>
  <path class="cls-1" d="M437.21,220.45c2.12,3.4,3.73,5.15,4.4,7.19,5.1,15.61,13.27,29.32,24.93,40.89,11.27,11.17,24.52,19.08,39.56,24.18,2.25.76,3.94,3.16,5.89,4.81-1.93,1.5-3.63,3.63-5.81,4.39-31.52,10.96-52.92,32-63.91,63.55-.4,1.16-.5,2.55-1.23,3.44-1.01,1.24-2.47,2.91-3.76,2.93-1.26.01-3.11-1.56-3.71-2.89-1.8-3.97-2.87-8.27-4.67-12.25-12.13-26.82-32.19-44.99-60.02-54.56-1.32-.46-2.74-.72-3.97-1.37-3.34-1.77-3.36-5.03-.07-6.89.9-.51,1.95-.78,2.94-1.12,32.54-10.82,54.01-32.69,65.09-65.02.71-2.06,2.24-3.84,4.31-7.29Z"/>
</svg>