<?xml version="1.0" encoding="UTF-8"?>
<svg id="Layer_1" data-name="Layer 1" xmlns="http://www.w3.org/2000/svg" viewBox="0 0 512 512">
  <defs>
    <style>
      .cls-1 {
        stroke-width: 0px;
      }
    </style>
  </defs>
  <path class="cls-1" d="M0,128.02c1.15-3.8,2.02-7.71,3.51-11.37,5.82-14.29,16.02-24.46,31-28.12,33.77-8.26,67.73-15.71,101.62-23.47.61-.14,1.28-.02,2.61-.02,0,2.26,0,4.36,0,6.45,0,98.14-.07,196.28.04,294.43.04,37.58,17.1,65.26,50.03,83.07,13.3,7.19,27.85,9.78,42.9,9.77,40.49-.02,80.98,0,121.47,0,1.81,0,3.63,0,5.44,0l.16.97c-8.24,2.03-16.46,4.11-24.71,6.09-63.25,15.18-126.5,30.34-189.74,45.53-.47.11-.89.43-1.34.66h-14c-.56-.3-1.08-.75-1.68-.89-20.03-4.66-32.69-17-37.99-36.79-23.81-88.8-47.55-177.62-71.33-266.42C12.02,185.59,6,163.31,0,141.02c0-4.33,0-8.67,0-13Z"/>
  <path class="cls-1" d="M170.75,213.14c0-49.49-.1-98.99.04-148.48.08-31.17,20.27-56.42,50.25-63.1,4.51-1.01,9.24-1.45,13.87-1.46C305.73,0,376.56-.04,447.38.05c36.44.04,64.55,28.24,64.57,64.76.06,98.99.06,197.98,0,296.97-.02,36.31-27.64,64.7-63.97,64.87-71.16.33-142.32.35-213.48-.01-36.2-.19-63.59-28.29-63.71-64.51-.17-49.66-.04-99.32-.04-148.98Z"/>
</svg>