<?xml version="1.0" encoding="UTF-8"?>
<svg id="Layer_1" data-name="Layer 1" xmlns="http://www.w3.org/2000/svg" viewBox="0 0 512 512">
  <defs>
    <style>
      .cls-1 {
        stroke-width: 0px;
      }
    </style>
  </defs>
  <path class="cls-1" d="M512,166.18v20.98c-.26,1.45-.65,2.88-.76,4.34-1.94,24.47-9.71,47.09-21.65,68.38-15.04,26.83-34.9,49.9-56.63,71.35-52.66,52-110.61,98.05-166.28,146.66-6.6,5.77-14.51,5.41-21.37-.3-5.76-4.79-11.42-9.7-17.06-14.63-44.75-39.11-89.91-77.77-134.07-117.53-27.39-24.66-52.43-51.78-70.55-84.29-30.43-54.62-32.06-110.07-1.48-165.02,16.95-30.45,43.11-50.89,76.87-60.44,36.01-10.19,70.52-6.51,102.63,13.63,20.43,12.82,36,30.4,48.74,50.66,1.88,2.99,3.72,6.01,5.08,8.2,9.67-12.48,18.14-25.61,28.76-36.69,37.41-39.03,82.88-50.95,134.1-34.07,48.21,15.89,76.16,51.53,88.62,99.88,2.43,9.44,3.41,19.25,5.05,28.89Z"/>
</svg>