<?xml version="1.0" encoding="UTF-8"?>
<svg id="Layer_1" data-name="Layer 1" xmlns="http://www.w3.org/2000/svg" viewBox="0 0 512 512">
  <defs>
    <style>
      .cls-1 {
        stroke-width: 0px;
      }
    </style>
  </defs>
  <path class="cls-1" d="M205.83,102.3c28.74,0,57.49-.17,86.23.06,17.85.15,35.39,2.7,52.2,9.03,36,13.54,54.83,40.89,61.59,77.57,1.69,9.18,2.84,18.61,2.88,27.93.16,41.71.42,83.43-.66,125.12-.35,13.34-3.34,27.02-7.5,39.77-12.16,37.25-39.69,57.33-77.27,63.96-14.45,2.55-29.34,2.97-44.05,3.46-8.94.29-15.62,3.15-20.88,10.45-8.98,12.46-18.32,24.67-27.61,36.9-15.6,20.53-35.97,20.61-51.5.19-9.18-12.07-18.34-24.15-27.28-36.41-5.49-7.53-12.51-10.73-21.89-11.13-18.9-.81-38.05-.93-56.56-4.31-40.38-7.37-61.77-29.72-68.53-70.25-2.64-15.86-3.69-32.11-3.96-48.2-.58-33.72-.66-67.47.04-101.19.31-14.86,1.58-29.99,4.88-44.44,9.7-42.48,37.52-66.89,79.8-74.81,12.86-2.41,26.13-3.34,39.24-3.6,26.93-.53,53.89-.16,80.83-.16v.04ZM115.59,255.57c-13.94.07-25.57,11.8-25.46,25.69.11,13.99,11.81,25.56,25.72,25.46,13.95-.11,25.49-11.79,25.42-25.74-.07-14.01-11.66-25.47-25.68-25.4ZM230.34,281.41c.15-14.1-11.15-25.71-25.17-25.84-14.06-.13-25.6,11.22-25.69,25.29-.09,14.26,10.98,25.64,25.14,25.85,14.04.2,25.57-11.14,25.72-25.3ZM319.8,281.21c.03-14.1-11.34-25.59-25.38-25.63-14.01-.05-25.55,11.43-25.61,25.46-.06,14.04,11.39,25.61,25.41,25.68,13.95.07,25.54-11.49,25.58-25.51Z"/>
  <path class="cls-1" d="M307.02.23c29.14,0,58.28-.12,87.41.04,20.53.12,40.52,3.35,59.34,11.99,31.09,14.28,47.43,39.76,53.82,72.3,2.06,10.52,3.38,21.35,3.49,32.06.4,38.12.49,76.24.01,114.36-.3,23.97-4.55,47.23-17.09,68.27-7.07,11.86-16.49,21.45-28.04,29-3.89,2.54-7.82,4.05-12.31,1.75-4.83-2.47-6.56-6.78-6.57-11.89-.03-11.18.12-22.35.07-33.53-.1-25.74.56-51.52-.62-77.21-1.53-33.34-10.75-64.49-31.98-91.03-24.02-30.02-56.51-45.02-93.75-49.72-19.11-2.41-38.59-2.44-57.91-2.58-43.11-.31-86.22-.02-129.33.03-.8,0-1.6.02-2.39-.02-10.42-.46-15.13-9.2-9.57-17.98,14.88-23.53,36.95-36.65,63.63-41.77,14-2.68,28.47-3.66,42.76-3.99,26.33-.61,52.69-.17,79.03-.17v.08Z"/>
</svg>