<?xml version="1.0" encoding="UTF-8"?>
<svg id="Layer_1" data-name="Layer 1" xmlns="http://www.w3.org/2000/svg" viewBox="0 0 512 512">
  <defs>
    <style>
      .cls-1 {
        stroke-width: 0px;
      }
    </style>
  </defs>
  <path class="cls-1" d="M253.92,512c-44.6-.42-89.74-6.68-132.92-23.8-22.62-8.97-43.5-20.77-60.76-38.4-21.01-21.47-23.87-46.86-17.05-74.63,7.96-32.38,26.62-57.73,51.84-78.63,32.54-26.96,70.24-43.11,111.26-52.01,2.3-.5,5.02-.34,7.25.39,28.28,9.27,56.51,9.16,84.81.09,2.26-.72,4.97-1.04,7.24-.54,45.89,10.16,87.62,28.75,121.97,61.63,22.64,21.68,37.7,47.51,43.16,78.92,5.02,28.86-3.99,52.03-25.48,71.04-22.98,20.34-50.38,32.21-79.35,40.85-36.01,10.73-72.95,14.91-111.99,15.1Z"/>
  <path class="cls-1" d="M255.56,238.94c-65.07.17-118.85-53.38-119.06-118.52C136.3,53.81,189.46.18,255.87,0c65.07-.17,119.39,53.21,119.58,117.52.2,68-52.37,121.25-119.89,121.42Z"/>
</svg>