<?xml version="1.0" encoding="UTF-8"?>
<svg id="Layer_2" data-name="Layer 2" xmlns="http://www.w3.org/2000/svg" viewBox="0 0 464.7 464.57">
  <g id="Layer_1-2" data-name="Layer 1">
    <g id="p0KPTg.tif">
      <path d="M236.6,464.57h-7.98c-19.38-4.13-33.45-19.02-46.41-32.92s-13.72-23.56-35.96-23.01c-23.39.58-54.76,8-75.2-7.53-25.09-19.05-15.57-57.05-15.01-83.68.51-24.02-18.99-29.7-33.52-44.41C12.44,262.83,3.32,250.27.11,236.06c.24-2.55-.34-5.52,0-7.98,1.82-13.27,14.61-29.2,23.94-38.43,8.46-8.37,24.9-17.96,29.43-28.44,5.98-13.82-.61-33.51-.52-48.43.2-32.97,9.43-54.93,44.57-59.2,18.85-2.29,37.89,3.29,54.8,1.9,18.46-1.51,28.79-23.57,41.35-35.47,28.76-27.26,50.63-26.42,78.88.97,14.93,14.48,21.47,35.02,45.41,34.51,23.83-.5,55.27-8.37,76.2,7.53,24.85,18.87,15.74,56.28,15.02,82.69-.68,24.98,18.44,30.14,33.51,45.4,30.36,30.72,28.75,53.55-1.53,83.38-8.97,8.83-26.45,18.74-30.42,30.45-4.19,12.34,1.51,33.5,1.37,47.26-.43,42.55-16.8,58.86-59.27,59.28-18.96.19-42.72-8.9-57.77,5.3-17.07,16.1-31.48,44.09-58.48,47.79ZM289.23,158.47c-3.25.55-6.73,2.81-9.65,4.32l-71.41,78.25c-9.04-7.25-18.14-22.08-29.42-25.45-23.28-6.94-43.1,17.82-30.98,38.96,3,5.24,40.3,42.8,45.99,46.81,9.79,6.9,24.26,6.38,33.34-1.46l90.17-100.43c12.41-21.45-2.83-45.29-28.04-41.01Z"/>
    </g>
  </g>
</svg>